<?xml version="1.0" encoding="UTF-8" standalone="no"?>
<svg
   width="128"
   height="128"
   viewBox="0 0 128 128"
   fill="none"
   version="1.1"
   id="svg2"
   sodipodi:docname="logo-vk-bw-circle.svg"
   inkscape:version="1.3.2 (091e20e, 2023-11-25, custom)"
   inkscape:export-filename="logo-vk-bw-circle.png"
   inkscape:export-xdpi="96"
   inkscape:export-ydpi="96"
   xmlns:inkscape="http://www.inkscape.org/namespaces/inkscape"
   xmlns:sodipodi="http://sodipodi.sourceforge.net/DTD/sodipodi-0.dtd"
   xmlns="http://www.w3.org/2000/svg"
   xmlns:svg="http://www.w3.org/2000/svg">
  <defs
     id="defs2" />
  <sodipodi:namedview
     id="namedview2"
     pagecolor="#ffffff"
     bordercolor="#000000"
     borderopacity="0.25"
     inkscape:showpageshadow="2"
     inkscape:pageopacity="0.0"
     inkscape:pagecheckerboard="0"
     inkscape:deskcolor="#d1d1d1"
     inkscape:zoom="2.1171875"
     inkscape:cx="-32.118081"
     inkscape:cy="78.169741"
     inkscape:window-width="1920"
     inkscape:window-height="1009"
     inkscape:window-x="1912"
     inkscape:window-y="-8"
     inkscape:window-maximized="1"
     inkscape:current-layer="svg2" />
  <path
     id="path1"
     style="fill:#000000;fill-opacity:1;stroke-width:2.66667"
     d="M 64,0 A 64,64 0 0 0 0,64 64,64 0 0 0 64,128 64,64 0 0 0 128,64 64,64 0 0 0 64,0 Z M 21.598958,38.932291 H 36.213541 C 36.693541,63.358909 47.466683,73.705213 56,75.838541 V 38.932291 H 69.760416 V 60 C 78.187067,59.093333 87.039381,49.492269 90.026043,38.932291 h 13.760417 c -2.29333,13.013306 -11.8921,22.61584 -18.718751,26.562501 6.826651,3.199995 17.756671,11.572115 21.916671,26.718749 H 91.838541 C 88.585213,82.080229 80.480395,74.238541 69.760416,73.171875 v 19.041666 h -1.656251 c -29.173274,0 -45.811875,-20.001314 -46.505207,-53.28125 z" />
</svg>
