<?xml version="1.0" encoding="UTF-8" standalone="no"?>
<svg
   width="132"
   height="132"
   version="1.1"
   id="svg9"
   sodipodi:docname="logo-instagram-bw.svg"
   inkscape:version="1.3.2 (091e20e, 2023-11-25, custom)"
   inkscape:export-filename="logo-instagram-bw.png"
   inkscape:export-xdpi="93.090912"
   inkscape:export-ydpi="93.090912"
   xmlns:inkscape="http://www.inkscape.org/namespaces/inkscape"
   xmlns:sodipodi="http://sodipodi.sourceforge.net/DTD/sodipodi-0.dtd"
   xmlns:xlink="http://www.w3.org/1999/xlink"
   xmlns="http://www.w3.org/2000/svg"
   xmlns:svg="http://www.w3.org/2000/svg">
  <sodipodi:namedview
     id="namedview9"
     pagecolor="#ffffff"
     bordercolor="#000000"
     borderopacity="0.25"
     inkscape:showpageshadow="2"
     inkscape:pageopacity="0.0"
     inkscape:pagecheckerboard="0"
     inkscape:deskcolor="#d1d1d1"
     inkscape:zoom="3.0795455"
     inkscape:cx="-5.5202952"
     inkscape:cy="89.785978"
     inkscape:window-width="1920"
     inkscape:window-height="1009"
     inkscape:window-x="1912"
     inkscape:window-y="-8"
     inkscape:window-maximized="1"
     inkscape:current-layer="svg9" />
  <defs
     id="defs7">
    <linearGradient
       id="b">
      <stop
         offset="0"
         stop-color="#3771c8"
         id="stop1" />
      <stop
         stop-color="#3771c8"
         offset=".128"
         id="stop2" />
      <stop
         offset="1"
         stop-color="#60f"
         stop-opacity="0"
         id="stop3" />
    </linearGradient>
    <linearGradient
       id="a">
      <stop
         offset="0"
         stop-color="#fd5"
         id="stop4" />
      <stop
         offset=".1"
         stop-color="#fd5"
         id="stop5" />
      <stop
         offset=".5"
         stop-color="#ff543e"
         id="stop6" />
      <stop
         offset="1"
         stop-color="#c837ab"
         id="stop7" />
    </linearGradient>
    <radialGradient
       id="c"
       cx="158.429"
       cy="578.08801"
       r="65"
       xlink:href="#a"
       gradientUnits="userSpaceOnUse"
       gradientTransform="matrix(0,-1.98198,1.8439,0,-1031.402,454.004)"
       fx="158.429"
       fy="578.08801" />
    <radialGradient
       id="d"
       cx="147.694"
       cy="473.45499"
       r="65"
       xlink:href="#b"
       gradientUnits="userSpaceOnUse"
       gradientTransform="matrix(0.17394,0.86872,-3.5818,0.71718,1648.348,-458.493)"
       fx="147.694"
       fy="473.45499" />
  </defs>
  <path
     id="path8"
     d="M 66.020097,0 C 38.465641,0 30.406923,0.02868701 28.840474,0.15866811 23.185834,0.62883298 19.668622,1.5201224 15.835247,3.4292149 12.881023,4.8965767 10.550423,6.596282 8.2510009,8.9806177 4.0633218,13.328883 1.5260289,18.678929 0.6072853,25.037836 0.16059843,28.12488 0.03090696,28.753986 0.00451186,44.522284 c -0.01015169,5.2561 0,12.173538 0,21.451935 0,27.539687 0.02862914,35.592281 0.16060424,37.156111 0.45683885,5.50389 1.3213404,8.96722 3.1486956,12.75495 3.492279,7.25049 10.1621373,12.69345 18.0197553,14.72439 2.720729,0.70068 5.725165,1.08656 9.582904,1.26935 1.634468,0.0711 18.293323,0.12098 34.962848,0.12098 16.669525,0 33.339244,-0.0199 34.933111,-0.10114 4.46685,-0.21019 7.06196,-0.5578 9.92989,-1.29908 7.90838,-2.04111 14.45642,-7.40411 18.01976,-14.75615 1.79182,-3.69633 2.69987,-7.29052 3.11101,-12.50701 C 131.96239,102.19928 132,84.065349 132,65.95638 132,47.844364 131.9585,29.745211 131.86912,28.607879 131.4529,23.307097 130.54434,19.743323 128.69466,15.97591 127.17694,12.891912 125.49227,10.587792 123.04564,8.2329044 118.67927,4.0613317 113.34023,1.5229217 106.97697,0.6049323 103.89382,0.15913824 103.27798,0.027428 87.501833,1.0104936e-5 Z m -0.0456,17.263096 h 0.01587 c 13.216069,7e-5 14.881277,0.05708 20.075926,0.293535 5.187653,0.237621 8.730858,1.059619 11.837359,2.264989 3.208028,1.243956 5.918618,2.9095 8.629178,5.620819 2.71058,2.709288 4.37456,5.42966 5.62325,8.635515 1.19793,3.099229 2.02072,6.639632 2.26436,11.828711 0.2335,5.199232 0.29346,6.861553 0.29346,20.099288 0,13.237734 -0.06,14.894105 -0.29346,20.093338 -0.24364,5.187047 -1.06643,8.730448 -2.26436,11.830692 -1.24869,3.204847 -2.91267,5.924247 -5.62325,8.633527 -2.70752,2.71133 -5.42322,4.38181 -8.627198,5.62678 -3.100407,1.20536 -6.645737,2.02736 -11.83339,2.26499 -5.197806,0.23661 -6.852707,0.29352 -20.087823,0.29352 -13.233085,0 -14.893982,-0.057 -20.091785,-0.29352 -5.186644,-0.23763 -8.727042,-1.05963 -11.827445,-2.26499 -3.202948,-1.24497 -5.921656,-2.91545 -8.629178,-5.62678 -2.709562,-2.70928 -4.375612,-5.42767 -5.621259,-8.633527 -1.204024,-3.099224 -2.025796,-6.641614 -2.264368,-11.830692 -0.235526,-5.199233 -0.293452,-6.855604 -0.293452,-20.093338 0,-13.237735 0.06102,-14.900056 0.293452,-20.099288 0.233496,-5.187048 1.056283,-8.730449 2.264368,-11.830695 1.248693,-3.20484 2.912662,-5.924243 5.623239,-8.633531 2.708547,-2.710304 5.428169,-4.375846 8.633147,-5.620819 3.098372,-1.20537 6.639786,-2.027368 11.827445,-2.264989 5.194646,-0.236461 6.8639,-0.293465 20.075922,-0.293535 z m -4.356227,8.772365 c -9.081947,0.01015 -10.823881,0.0706 -15.319169,0.273703 -4.751124,0.218327 -7.329837,1.009686 -9.047551,1.679899 -2.274042,0.885495 -3.897881,1.941387 -5.603412,3.647384 -1.705531,1.705997 -2.765143,3.332271 -3.648365,5.606936 -0.666984,1.718184 -1.460209,4.297611 -1.677462,9.050035 -0.233495,5.138305 -0.279574,6.672374 -0.279574,19.688733 0,13.016363 0.04609,14.560349 0.279574,19.698653 0.216238,4.752423 1.010478,7.331897 1.677462,9.048056 0.885252,2.275671 1.942834,3.896963 3.648365,5.60296 1.705531,1.706 3.32937,2.76194 5.603412,3.6454 1.718729,0.66718 4.296427,1.46056 9.047551,1.6799 5.136892,0.23357 6.679487,0.28362 19.691258,0.28362 13.010757,0 14.554368,-0.05 19.691262,-0.28362 4.751118,-0.21729 7.331867,-1.00968 9.047549,-1.6799 2.275058,-0.88346 3.893919,-1.9394 5.59945,-3.6454 1.70552,-1.704976 2.76316,-3.324337 3.64639,-5.598998 0.66698,-1.716149 1.4602,-4.295627 1.67746,-9.048051 0.23349,-5.138305 0.28552,-6.682482 0.28552,-19.690719 0,-13.008236 -0.052,-14.550431 -0.28552,-19.688735 -0.21624,-4.752423 -1.01048,-7.331898 -1.67746,-9.048051 -0.88526,-2.274665 -1.94087,-3.898955 -3.64639,-5.604952 -1.704521,-1.705998 -3.325411,-2.763921 -5.599454,-3.647384 -1.717713,-0.667167 -4.296431,-1.460604 -9.047549,-1.677917 -5.137909,-0.233559 -6.680505,-0.279651 -19.691262,-0.279651 -1.626343,0 -3.074669,-0.002 -4.372089,0 z m 30.38454,8.101993 c 3.228324,-10e-7 5.847303,2.621676 5.847303,5.850888 0,3.22921 -2.618979,5.848906 -5.847303,5.848906 -3.228324,0 -5.849282,-2.619696 -5.849282,-5.848906 0,-3.230227 2.620958,-5.848904 5.849282,-5.848904 z m -26.012451,6.836613 c 13.81987,0 25.021047,11.208222 25.021047,25.031886 0,13.823663 -11.201177,25.025931 -25.021047,25.025931 -13.819868,0 -25.025013,-11.202268 -25.025013,-25.025931 0,-13.823664 11.205145,-25.031886 25.025013,-25.031886 z m 0,8.784267 c -8.97129,0 -16.243158,7.273864 -16.243158,16.247619 0,8.972738 7.271868,16.247619 16.243158,16.247619 8.970275,0 16.243159,-7.274881 16.243159,-16.247619 0,-8.973755 -7.272884,-16.247619 -16.243159,-16.247619 z"
     style="stroke-width:1.01534" />
</svg>
