<?xml version="1.0" encoding="UTF-8" standalone="no"?>
<!-- Created with Inkscape (http://www.inkscape.org/) -->

<svg
   width="210mm"
   height="210mm"
   viewBox="0 0 210 210"
   version="1.1"
   id="svg1"
   xml:space="preserve"
   inkscape:version="1.3.2 (091e20e, 2023-11-25, custom)"
   sodipodi:docname="logo-saint-bike-polo-old-restyle.svg"
   xmlns:inkscape="http://www.inkscape.org/namespaces/inkscape"
   xmlns:sodipodi="http://sodipodi.sourceforge.net/DTD/sodipodi-0.dtd"
   xmlns="http://www.w3.org/2000/svg"
   xmlns:svg="http://www.w3.org/2000/svg"><sodipodi:namedview
     id="namedview1"
     pagecolor="#ffffff"
     bordercolor="#000000"
     borderopacity="0.25"
     inkscape:showpageshadow="2"
     inkscape:pageopacity="0.0"
     inkscape:pagecheckerboard="0"
     inkscape:deskcolor="#d1d1d1"
     inkscape:document-units="mm"
     inkscape:zoom="0.32000002"
     inkscape:cx="-724.99995"
     inkscape:cy="651.56246"
     inkscape:window-width="1920"
     inkscape:window-height="1009"
     inkscape:window-x="1912"
     inkscape:window-y="-8"
     inkscape:window-maximized="1"
     inkscape:current-layer="layer1"
     showguides="true"
     inkscape:lockguides="false" /><defs
     id="defs1" /><g
     inkscape:label="Layer 1"
     inkscape:groupmode="layer"
     id="layer1"
     style="display:inline"><rect
       style="display:inline;fill:#ffffff;fill-opacity:1;stroke-width:0.342686"
       id="rect2-1-9-4-3-1-1-5-8-0-8-7-9"
       width="210"
       height="210"
       x="-420"
       y="-210" /><path
       id="text1-8-6-17-5-1-3-65-5-0"
       style="font-size:43.774px;font-family:SansSerifBldFLF-Italic;-inkscape-font-specification:SansSerifBldFLF-Italic;display:inline;fill:#000000;fill-opacity:1;stroke-width:4.72465"
       d="m -364.62766,-159.99582 c -7.61669,0 -11.95017,4.68394 -11.95017,9.45524 0,5.07779 3.23905,7.35364 8.18554,8.40414 2.9766,0.6129 3.89589,2.01389 3.89589,3.67729 0,2.1012 -1.40087,3.45819 -4.07107,3.45819 -3.2393,0 -5.47161,-1.26966 -7.44141,-2.93316 l -4.37751,5.12166 c 2.714,2.53889 6.34727,4.50876 11.24996,4.50876 8.53589,0 13.48238,-3.98334 13.48238,-10.76833 0,-4.9027 -2.93265,-7.87917 -8.62324,-9.10487 -2.1449,-0.4377 -2.97657,-1.48866 -2.97657,-2.49546 0,-1.88229 1.61951,-2.75745 3.72071,-2.75745 2.4075,0 3.85176,0.7002 5.60276,1.7508 l 3.54603,-5.51543 c -2.67029,-1.6634 -5.0779,-2.80138 -10.2433,-2.80138 z m 24.07553,0.17467 -15.10192,31.25494 h 7.61659 l 2.23242,-4.50877 h 9.93687 l 0.61288,4.50877 h 7.57266 l -4.1584,-31.25494 z m 35.68,0 -5.51543,31.25494 h 7.79177 l 3.19516,-18.34152 11.68766,18.34152 h 7.57318 l 5.51542,-31.25494 h -7.70444 l -3.32641,19.04173 -12.12536,-19.04173 z m 34.66868,0 -1.13791,6.69778 h 6.25956 l -4.33358,24.55716 h 7.57318 l 4.33358,-24.55716 h 6.25957 l 1.18184,-6.69778 z m -52.65932,5.2e-4 3.04168,6.69726 -4.33359,24.55716 h 7.57318 l 5.51543,-31.25442 z m -14.97531,10.19937 1.13843,9.5865 h -5.82238 z m 3.44113,28.93364 -5.51594,31.25545 h 7.61711 l 2.36368,-13.43897 7.35407,13.43897 h 8.36073 l -9.28005,-16.89716 14.31437,-14.35829 h -8.36125 l -11.24996,11.29388 1.96991,-11.29388 z m 30.64206,0 -5.51594,31.25545 h 16.80983 l 1.13791,-6.69778 h -9.19272 l 1.00666,-5.60327 h 8.66768 l 1.18184,-6.69727 h -8.66717 l 1.00666,-5.55935 h 9.19272 l 1.13792,-6.69778 z m -71.11555,10e-4 -5.51595,31.25494 h 12.60699 c 6.87259,0 11.29388,-3.54572 11.29388,-10.06812 0,-4.11479 -2.84541,-6.0848 -4.81521,-6.5226 3.4144,-1.0505 4.72788,-3.54577 4.72788,-6.91637 0,-5.3405 -4.6839,-7.74785 -9.1488,-7.74785 z m 22.96397,0 3.04167,6.69726 -4.33358,24.55716 h 7.57318 l 5.51542,-31.25442 z m -16.35456,5.77794 h 1.57613 c 1.7072,0 2.58279,1.18195 2.58279,2.71405 0,2.5827 -1.401,3.54604 -3.67729,3.54604 h -1.61954 z m -2.14457,12.08198 h 2.71405 c 2.27629,0 3.58944,1.40063 3.58944,3.54552 0,2.8016 -1.97018,4.02715 -4.72788,4.02715 h -2.93263 z m 107.89212,20.66127 c -11.46879,0 -17.4656,8.667512 -17.4656,16.984502 0,7.70419 5.07739,14.97066 15.67088,14.97066 11.60003,0 17.55345,-8.44854 17.55345,-16.85324 0,-7.66029 -5.1217,-15.101922 -15.75873,-15.101922 z m -74.5293,0.13178 c -8.76498,0 -15.84554,7.081182 -15.84554,15.846062 0,8.76498 7.08056,15.84606 15.84554,15.84606 h 19.63756 c 8.76488,0 15.84555,-7.08108 15.84555,-15.84606 0,-8.76471 -7.08039,-15.845782 -15.84503,-15.846062 z m -37.82818,0.21859 -5.51543,31.254422 h 7.61659 l 2.05776,-11.59981 h 3.7207 c 7.48539,0 12.16928,-3.7645 12.16928,-10.46189 0,-5.55909 -3.89606,-9.192722 -9.93686,-9.192722 z m 80.00907,0 -5.51543,31.254422 h 15.97784 l 1.13791,-6.69726 h -8.36073 l 4.33359,-24.557162 z m -73.57432,6.697272 h 3.19567 c 1.7072,0 2.75797,1.26979 2.75797,2.80189 0,2.3199 -1.6636,3.45819 -3.67729,3.45819 h -3.41427 z m 105.48503,0.0879 c 5.60304,0 8.31681,4.15871 8.31681,8.09821 0,4.99009 -3.10784,9.67383 -9.10487,9.67383 -5.6468,0 -8.36073,-3.80842 -8.36073,-8.09822 0,-4.94649 3.1518,-9.67382 9.14879,-9.67382 z m -74.0916,0.37982 h 19.63756 c 4.6631,0 8.41913,3.75604 8.41913,8.41912 0,4.6632 -3.75603,8.41964 -8.41913,8.41964 h -19.63756 c -4.66309,0 -8.41912,-3.75644 -8.41912,-8.41964 0,-4.66308 3.75603,-8.41912 8.41912,-8.41912 z" /><g
       id="g10"
       transform="translate(0,-210)"><rect
         style="display:inline;fill:#000000;fill-opacity:1;stroke-width:0.342686"
         id="rect2-1-9-4-3-1-1-5-8-0-8-7-7"
         width="210"
         height="210"
         x="-210"
         y="0" /><path
         id="text1-8-6-17-5-1-3-65-5-2"
         style="font-size:43.774px;font-family:SansSerifBldFLF-Italic;-inkscape-font-specification:SansSerifBldFLF-Italic;display:inline;fill:#ffffff;fill-opacity:1;stroke-width:4.72465"
         d="m -154.62766,50.004183 c -7.61669,0 -11.95017,4.68394 -11.95017,9.45524 0,5.07779 3.23905,7.35364 8.18554,8.40414 2.9766,0.6129 3.89589,2.01389 3.89589,3.67729 0,2.1012 -1.40087,3.45819 -4.07107,3.45819 -3.2393,0 -5.47161,-1.26966 -7.44141,-2.93316 l -4.37751,5.12166 c 2.714,2.53889 6.34727,4.50876 11.24996,4.50876 8.53589,0 13.48238,-3.98334 13.48238,-10.76833 0,-4.9027 -2.93265,-7.87917 -8.62324,-9.10487 -2.1449,-0.4377 -2.97657,-1.48866 -2.97657,-2.49546 0,-1.88229 1.61951,-2.75745 3.72071,-2.75745 2.40749,0 3.85176,0.7002 5.60276,1.7508 l 3.54603,-5.51543 c -2.67029,-1.6634 -5.0779,-2.80138 -10.2433,-2.80138 z m 24.07553,0.17467 -15.10192,31.25494 h 7.61659 l 2.23242,-4.50877 h 9.93687 l 0.61288,4.50877 h 7.57266 l -4.1584,-31.25494 z m 35.68,0 -5.51543,31.25494 h 7.79177 l 3.19516,-18.34152 11.68766,18.34152 h 7.57318 l 5.51542,-31.25494 h -7.70444 l -3.32641,19.04173 -12.12536,-19.04173 z m 34.66868,0 -1.13791,6.69778 h 6.25956 l -4.33358,24.55716 h 7.57318 l 4.33358,-24.55716 h 6.25957 l 1.18184,-6.69778 z m -52.65932,5.2e-4 3.04168,6.69726 -4.33359,24.55716 h 7.57318 l 5.51543,-31.25442 z m -14.97531,10.19937 1.13843,9.5865 h -5.82238 z m 3.44113,28.93364 -5.51594,31.255447 h 7.61711 l 2.36368,-13.43897 7.35407,13.43897 h 8.36073 l -9.28005,-16.89716 14.31437,-14.358287 h -8.36125 l -11.24996,11.293877 1.96991,-11.293877 z m 30.64206,0 -5.51594,31.255447 H -82.461 l 1.13791,-6.69778 h -9.19272 l 1.00666,-5.60327 h 8.66768 l 1.18184,-6.69727 h -8.66717 l 1.00666,-5.559347 h 9.19272 l 1.13792,-6.69778 z m -71.11555,0.001 -5.51595,31.254937 h 12.60699 c 6.87259,0 11.29388,-3.54572 11.29388,-10.06812 0,-4.11479 -2.84541,-6.0848 -4.81521,-6.5226 3.4144,-1.0505 4.72788,-3.54577 4.72788,-6.916367 0,-5.3405 -4.6839,-7.74785 -9.1488,-7.74785 z m 22.96397,0 3.04167,6.69726 -4.33358,24.557157 h 7.57318 l 5.51542,-31.254417 z m -16.35456,5.77794 h 1.57613 c 1.7072,0 2.58279,1.18195 2.58279,2.71405 0,2.582697 -1.401,3.546037 -3.6773,3.546037 h -1.61953 z m -2.14457,12.081977 h 2.71404 c 2.2763,0 3.58945,1.40063 3.58945,3.54552 0,2.8016 -1.97018,4.02715 -4.72788,4.02715 h -2.93263 z m 107.89212,20.66127 c -11.46879,0 -17.4656,8.66751 -17.4656,16.9845 0,7.70419 5.07739,14.97066 15.67088,14.97066 11.60003,0 17.55345,-8.44854 17.55345,-16.85324 0,-7.66029 -5.1217,-15.10192 -15.75873,-15.10192 z m -74.5293,0.13178 c -8.76498,0 -15.84554,7.08118 -15.84554,15.84606 0,8.76498 7.08056,15.84606 15.84554,15.84606 h 19.63756 c 8.76488,0 15.84555,-7.08108 15.84555,-15.84606 0,-8.76471 -7.08039,-15.84578 -15.84503,-15.84606 z m -37.82818,0.21859 -5.51543,31.25442 h 7.61659 l 2.05776,-11.59981 h 3.7207 c 7.48539,0 12.16928,-3.7645 12.16928,-10.46189 0,-5.55909 -3.89606,-9.19272 -9.93686,-9.19272 z m 80.00907,0 -5.51543,31.25442 h 15.97784 l 1.13791,-6.69726 h -8.36073 l 4.33359,-24.55716 z m -73.57432,6.69727 h 3.19567 c 1.7072,0 2.75797,1.26979 2.75797,2.80189 0,2.3199 -1.6636,3.45819 -3.67729,3.45819 h -3.41427 z m 105.48503,0.0879 c 5.60304,0 8.31681,4.15871 8.31681,8.09821 0,4.99009 -3.10784,9.67383 -9.10487,9.67383 -5.6468,0 -8.36073,-3.80842 -8.36073,-8.09822 0,-4.94649 3.1518,-9.67382 9.14879,-9.67382 z m -74.0916,0.37982 h 19.63756 c 4.6631,0 8.41913,3.75604 8.41913,8.41912 0,4.6632 -3.75603,8.41964 -8.41913,8.41964 h -19.63756 c -4.66309,0 -8.41912,-3.75644 -8.41912,-8.41964 0,-4.66308 3.75603,-8.41912 8.41912,-8.41912 z" /></g><rect
       style="fill:#ffffff;fill-opacity:1;stroke-width:0.342686"
       id="rect2-1-9-4-3-1-1-5-8-0-8-7"
       width="210"
       height="210"
       x="-630"
       y="-420" /><path
       id="text1-8-6-17-5-1-3-65-5"
       style="font-size:43.774px;font-family:SansSerifBldFLF-Italic;-inkscape-font-specification:SansSerifBldFLF-Italic;fill:#000000;fill-opacity:1;stroke-width:4.72465"
       d="m -574.62765,-369.99582 c -7.61669,0 -11.95017,4.68395 -11.95017,9.45524 0,5.0778 3.23905,7.35364 8.18554,8.40414 2.9766,0.6129 3.89589,2.0139 3.89589,3.67729 0,2.1012 -1.40087,3.45819 -4.07107,3.45819 -3.2393,0 -5.47161,-1.26966 -7.44141,-2.93316 l -4.37751,5.12166 c 2.714,2.53889 6.34727,4.50877 11.24996,4.50877 8.53589,0 13.48238,-3.98335 13.48238,-10.76834 0,-4.9027 -2.93265,-7.87917 -8.62324,-9.10487 -2.1449,-0.4377 -2.97657,-1.48866 -2.97657,-2.49546 0,-1.88229 1.61951,-2.75745 3.72071,-2.75745 2.40749,0 3.85176,0.7002 5.60276,1.7508 l 3.54603,-5.51543 c -2.67029,-1.6634 -5.0779,-2.80138 -10.2433,-2.80138 z m 24.07553,0.17467 -15.10192,31.25494 h 7.61659 l 2.23242,-4.50877 h 9.93687 l 0.61288,4.50877 h 7.57266 l -4.1584,-31.25494 z m 35.68,0 -5.51543,31.25494 h 7.79177 l 3.19516,-18.34152 11.68766,18.34152 h 7.57318 l 5.51542,-31.25494 h -7.70444 l -3.32641,19.04173 -12.12536,-19.04173 z m 34.66868,0 -1.13791,6.69778 h 6.25956 l -4.33358,24.55716 h 7.57318 l 4.33358,-24.55716 h 6.25957 l 1.18184,-6.69778 z m -52.65932,5.2e-4 3.04168,6.69726 -4.33359,24.55716 h 7.57318 l 5.51543,-31.25442 z m -14.97531,10.19937 1.13843,9.5865 h -5.82238 z m 3.44113,28.93364 -5.51594,31.25545 h 7.61711 l 2.36368,-13.43897 7.35407,13.43897 h 8.36073 l -9.28005,-16.89716 14.31437,-14.35829 h -8.36125 l -11.24996,11.29388 1.96991,-11.29388 z m 30.64206,0 -5.51594,31.25545 h 16.80983 l 1.13791,-6.69778 h -9.19272 l 1.00666,-5.60327 h 8.66768 l 1.18184,-6.69727 h -8.66717 l 1.00666,-5.55935 h 9.19272 l 1.13792,-6.69778 z m -71.11556,10e-4 -5.51594,31.25494 h 12.60698 c 6.8726,0 11.29389,-3.54572 11.29389,-10.06812 0,-4.11479 -2.84541,-6.0848 -4.81521,-6.5226 3.4144,-1.0505 4.72788,-3.54577 4.72788,-6.91637 0,-5.3405 -4.6839,-7.74785 -9.1488,-7.74785 z m 22.96398,0 3.04167,6.69726 -4.33358,24.55716 h 7.57318 l 5.51542,-31.25442 z m -16.35456,5.77794 h 1.57613 c 1.7072,0 2.58279,1.18195 2.58279,2.71405 0,2.5827 -1.401,3.54604 -3.6773,3.54604 h -1.61953 z m -2.14457,12.08198 h 2.71404 c 2.2763,0 3.58945,1.40063 3.58945,3.54552 0,2.8016 -1.97018,4.02715 -4.72788,4.02715 h -2.93263 z m 107.89212,20.66127 c -11.46879,0 -17.4656,8.66751 -17.4656,16.9845 0,7.70419 5.07739,14.97066 15.67088,14.97066 11.60003,0 17.55345,-8.44854 17.55345,-16.85324 0,-7.66029 -5.1217,-15.10192 -15.75873,-15.10192 z m -74.5293,0.13178 c -8.76498,0 -15.84554,7.08118 -15.84554,15.84606 0,8.76498 7.08056,15.84606 15.84554,15.84606 h 19.63756 c 8.76488,0 15.84555,-7.08108 15.84555,-15.84606 0,-8.76471 -7.08039,-15.84578 -15.84503,-15.84606 z m -37.82818,0.21859 -5.51543,31.25442 h 7.61659 l 2.05776,-11.59981 h 3.7207 c 7.48539,0 12.16928,-3.7645 12.16928,-10.46189 0,-5.55909 -3.89606,-9.19272 -9.93686,-9.19272 z m 80.00907,0 -5.51543,31.25442 h 15.97784 l 1.13791,-6.69726 h -8.36073 l 4.33359,-24.55716 z m -73.57432,6.69727 h 3.19567 c 1.7072,0 2.75797,1.26979 2.75797,2.80189 0,2.3199 -1.6636,3.45819 -3.67729,3.45819 h -3.41427 z m 105.48503,0.0879 c 5.60304,0 8.31681,4.15871 8.31681,8.09821 0,4.99009 -3.10784,9.67383 -9.10487,9.67383 -5.6468,0 -8.36073,-3.80842 -8.36073,-8.09822 0,-4.94649 3.1518,-9.67382 9.14879,-9.67382 z m -74.0916,0.37982 h 19.63756 c 4.6631,0 8.41913,3.75604 8.41913,8.41912 0,4.6632 -3.75603,8.41964 -8.41913,8.41964 h -19.63756 c -4.66309,0 -8.41912,-3.75644 -8.41912,-8.41964 0,-4.66308 3.75603,-8.41912 8.41912,-8.41912 z" /><path
       id="text1-8-6-17-5-1-3-65-5-8-1-1"
       style="font-size:43.774px;font-family:SansSerifBldFLF-Italic;-inkscape-font-specification:SansSerifBldFLF-Italic;display:inline;fill:#000000;fill-opacity:1;stroke-width:4.72465"
       d="m -424.48492,-292.0083 c -7.61669,0 -11.95018,4.68393 -11.95018,9.45523 0,5.0778 3.23906,7.35364 8.18555,8.40414 2.9766,0.6129 3.89589,2.0139 3.89589,3.6773 0,2.1012 -1.40088,3.45819 -4.07107,3.45819 -3.2393,0 -5.47161,-1.26965 -7.44141,-2.93315 l -4.37751,5.12164 c 2.714,2.53891 6.34727,4.50877 11.24996,4.50877 8.53589,0 13.48238,-3.98334 13.48238,-10.76832 0,-4.90271 -2.93265,-7.87918 -8.62325,-9.10488 -2.14489,-0.4377 -2.97656,-1.48867 -2.97656,-2.49547 0,-1.88229 1.61951,-2.75745 3.72071,-2.75745 2.40749,0 3.85176,0.70019 5.60275,1.75079 l 3.54604,-5.51542 c -2.6703,-1.6634 -5.07791,-2.80138 -10.2433,-2.80137 z m 24.07553,0.17466 -15.10192,31.25495 h 7.61659 l 2.23242,-4.50876 h 9.93686 l 0.61289,4.50876 h 7.57266 l -4.15839,-31.25495 z m 35.68,0 -5.51543,31.25495 h 7.79177 l 3.19516,-18.34151 11.68766,18.34151 h 7.57318 l 5.51542,-31.25495 h -7.70444 l -3.32641,19.04174 -12.12536,-19.04174 z m 34.66868,0 -1.13791,6.69778 h 6.25956 l -4.33358,24.55717 h 7.57318 l 4.33358,-24.55717 h 6.25957 l 1.18184,-6.69778 z m -52.65932,5.2e-4 3.04168,6.69726 -4.33359,24.55717 h 7.57318 l 5.51543,-31.25443 z m -14.97531,10.19938 1.13843,9.58649 h -5.82238 z"
       sodipodi:nodetypes="sscssccsscssccsccccccccccccccccccccccccccccccccccccccc" /><path
       id="text1-8-6-17-5-1-3-65-5-4-4-3"
       style="font-size:43.774px;font-family:SansSerifBldFLF-Italic;-inkscape-font-specification:SansSerifBldFLF-Italic;display:inline;fill:#000000;fill-opacity:1;stroke-width:4.72465"
       d="m -249.90467,-291.82796 -5.51594,31.25546 h 7.61711 l 2.36368,-13.43898 7.35407,13.43898 h 8.36072 l -9.28004,-16.89716 14.31436,-14.3583 h -8.36125 l -11.24995,11.29389 1.96991,-11.29389 z m 30.64205,0 -5.51594,31.25546 h 16.80983 l 1.13791,-6.69778 h -9.19272 l 1.00666,-5.60327 h 8.66768 l 1.18184,-6.69728 h -8.66717 l 1.00666,-5.55936 h 9.19272 l 1.13792,-6.69777 z m -71.11554,0.001 -5.51595,31.25493 h 12.60699 c 6.87259,0 11.29388,-3.54572 11.29388,-10.06811 0,-4.1148 -2.84541,-6.08481 -4.81521,-6.5226 3.4144,-1.05051 4.72788,-3.54578 4.72788,-6.91638 0,-5.34051 -4.6839,-7.74784 -9.1488,-7.74784 z m 22.96397,0 3.04167,6.69726 -4.33358,24.55714 h 7.57318 l 5.51542,-31.25441 z m -16.35456,5.77792 h 1.57613 c 1.7072,0 2.58279,1.18196 2.58279,2.71404 0,2.58271 -1.401,3.54605 -3.6773,3.54605 h -1.61953 z m -2.14457,12.08198 h 2.71405 c 2.27629,0 3.58944,1.40064 3.58944,3.54554 0,2.8016 -1.97018,4.02715 -4.72788,4.02715 h -2.93263 z"
       sodipodi:nodetypes="cccccccccccccccccccccccccccsscssccccccccssscccssscc" /><path
       id="text1-8-6-17-5-1-3-65-5-5-9-1"
       style="font-size:43.774px;font-family:SansSerifBldFLF-Italic;-inkscape-font-specification:SansSerifBldFLF-Italic;display:inline;fill:#000000;fill-opacity:1;stroke-width:4.72465"
       d="m -70.51553,-292.18142 c -11.46879,0 -17.4656,8.6675 -17.4656,16.9845 0,7.7042 5.0774,14.97067 15.67088,14.97067 11.60003,0 17.55345,-8.44855 17.55345,-16.85324 0,-7.66031 -5.1217,-15.10193 -15.75873,-15.10193 z m -74.5293,0.13178 c -8.76498,0 -15.84554,7.08118 -15.84554,15.84607 0,8.76498 7.08056,15.84606 15.84554,15.84606 h 19.63756 c 8.76488,0 15.84555,-7.08108 15.84555,-15.84606 0,-8.76473 -7.08039,-15.84578 -15.84503,-15.84607 z m -37.82818,0.21859 -5.51543,31.25443 h 7.61659 l 2.05776,-11.59981 h 3.7207 c 7.48539,0 12.16928,-3.7645 12.16928,-10.46191 0,-5.55908 -3.89606,-9.19271 -9.93686,-9.19271 z m 80.00907,0 -5.51543,31.25443 h 15.97785 l 1.13791,-6.69726 h -8.36073 l 4.33359,-24.55717 z m -73.57432,6.69726 h 3.19567 c 1.7072,0 2.75797,1.26979 2.75797,2.8019 0,2.3199 -1.66359,3.45819 -3.67729,3.45819 h -3.41427 z m 105.48504,0.0879 c 5.60303,0 8.31681,4.15871 8.31681,8.09821 0,4.99009 -3.10784,9.67383 -9.10487,9.67383 -5.6468,0 -8.36073,-3.80842 -8.36073,-8.09822 0,-4.94649 3.1518,-9.67382 9.14879,-9.67382 z m -74.0916,0.37982 h 19.63756 c 4.6631,0 8.41913,3.75604 8.41913,8.41912 0,4.6632 -3.75603,8.41964 -8.41913,8.41964 h -19.63756 c -4.66309,0 -8.41912,-3.75644 -8.41912,-8.41964 0,-4.66308 3.75603,-8.41912 8.41912,-8.41912 z"
       sodipodi:nodetypes="sssssssssscsccccssscccccccccsssccssssssssssss" /><path
       id="text1-8-6-17-5-1-3-65-5-8-6-4-2"
       style="font-size:43.774px;font-family:SansSerifBldFLF-Italic;-inkscape-font-specification:SansSerifBldFLF-Italic;display:inline;fill:#000000;fill-opacity:1;stroke-width:4.72465"
       d="m -22.48698,-292.02428 c -7.61669,0 -11.95018,4.68393 -11.95018,9.45523 0,5.0778 3.23906,7.35365 8.18555,8.40415 2.9766,0.6129 3.89589,2.0139 3.89589,3.6773 0,2.1012 -1.40088,3.45819 -4.07107,3.45819 -3.2393,0 -5.47161,-1.26966 -7.44141,-2.93316 l -4.37751,5.12165 c 2.714,2.5389 6.34727,4.50877 11.24996,4.50877 8.53589,0 13.48238,-3.98334 13.48238,-10.76833 0,-4.9027 -2.93265,-7.87918 -8.62325,-9.10487 -2.14489,-0.4377 -2.97656,-1.48867 -2.97656,-2.49547 0,-1.8823 1.61951,-2.75746 3.72071,-2.75746 2.40749,0 3.85176,0.70019 5.60275,1.75079 l 3.54604,-5.51542 c -2.6703,-1.66339 -5.07791,-2.80137 -10.2433,-2.80137 z m 24.07553,0.17466 -15.10192,31.25494 h 7.61659 l 2.23242,-4.50876 H 6.2725 l 0.61289,4.50876 h 7.57266 l -4.1584,-31.25495 z m 35.68,0 -5.51543,31.25494 h 7.79177 l 3.19516,-18.34151 11.68766,18.34151 h 7.57318 l 5.51542,-31.25495 h -7.70444 l -3.32641,19.04175 -12.12536,-19.04175 z m 34.66868,0 -1.13791,6.69779 h 6.25956 l -4.33358,24.55716 h 7.57318 l 4.33358,-24.55716 h 6.25957 l 1.18184,-6.69779 z m -52.65932,5.2e-4 3.04168,6.69726 -4.33359,24.55716 h 7.57318 l 5.51543,-31.25442 z m -14.97531,10.19937 1.13843,9.5865 h -5.82238 z"
       sodipodi:nodetypes="sscssccsscssccsccccccccccccccccccccccccccccccccccccccc" /><path
       id="text1-8-6-17-5-1-3-65-5-8-1-5-6"
       style="font-size:43.774px;font-family:SansSerifBldFLF-Italic;-inkscape-font-specification:SansSerifBldFLF-Italic;display:inline;fill:#000000;fill-opacity:1;stroke-width:4.72465"
       d="m -826.48286,-291.99232 c -7.61669,0 -11.95018,4.68393 -11.95018,9.45523 0,5.0778 3.23906,7.35365 8.18555,8.40415 2.9766,0.6129 3.89589,2.0139 3.89589,3.6773 0,2.1012 -1.40088,3.45819 -4.07107,3.45819 -3.2393,0 -5.47161,-1.26966 -7.44141,-2.93316 l -4.37751,5.12165 c 2.714,2.5389 6.34727,4.50877 11.24996,4.50877 8.53589,0 13.48238,-3.98334 13.48238,-10.76833 0,-4.9027 -2.93265,-7.87918 -8.62325,-9.10487 -2.14489,-0.4377 -2.97656,-1.48868 -2.97656,-2.49548 0,-1.88229 1.61951,-2.75745 3.72071,-2.75745 2.40749,0 3.85176,0.70019 5.60275,1.75079 l 3.54604,-5.51542 c -2.6703,-1.66339 -5.07791,-2.80137 -10.2433,-2.80137 z m 24.07553,0.17466 -15.10192,31.25494 h 7.61659 l 2.23242,-4.50876 h 9.93686 l 0.61289,4.50876 h 7.57266 l -4.15839,-31.25495 z m 35.68,0 -5.51543,31.25494 h 7.79177 l 3.19516,-18.34151 11.68766,18.34151 h 7.57318 l 5.51542,-31.25495 h -7.70444 l -3.32641,19.04175 -12.12536,-19.04175 z m 34.66868,0 -1.13791,6.69779 h 6.25956 l -4.33358,24.55716 h 7.57318 l 4.33358,-24.55716 h 6.25957 l 1.18184,-6.69779 z m -52.65932,5.2e-4 3.04168,6.69726 -4.33359,24.55716 h 7.57318 l 5.51543,-31.25442 z m -14.97531,10.19938 1.13843,9.58649 h -5.82238 z"
       sodipodi:nodetypes="sscssccsscssccsccccccccccccccccccccccccccccccccccccccc" /><path
       id="text1-8-6-17-5-1-3-65-5-4-4-9-5"
       style="font-size:43.774px;font-family:SansSerifBldFLF-Italic;-inkscape-font-specification:SansSerifBldFLF-Italic;display:inline;fill:#000000;fill-opacity:1;stroke-width:4.72465"
       d="m -651.90261,-291.81198 -5.51594,31.25545 h 7.61711 l 2.36368,-13.43897 7.35407,13.43897 h 8.36072 l -9.28004,-16.89716 14.31436,-14.3583 h -8.36125 l -11.24995,11.29389 1.96991,-11.29389 z m 30.64205,0 -5.51594,31.25545 h 16.80983 l 1.13791,-6.69778 h -9.19272 l 1.00666,-5.60327 h 8.66768 l 1.18184,-6.69727 h -8.66717 l 1.00666,-5.55936 h 9.19272 l 1.13792,-6.69777 z m -71.11554,0.001 -5.51595,31.25492 h 12.60699 c 6.87259,0 11.29388,-3.54571 11.29388,-10.0681 0,-4.1148 -2.84541,-6.08481 -4.81521,-6.52261 3.4144,-1.05051 4.72788,-3.54578 4.72788,-6.91638 0,-5.3405 -4.6839,-7.74783 -9.1488,-7.74783 z m 22.96397,0 3.04167,6.69726 -4.33358,24.55715 h 7.57318 l 5.51542,-31.25441 z m -16.35456,5.77791 h 1.57613 c 1.7072,0 2.58279,1.18196 2.58279,2.71405 0,2.58271 -1.401,3.54605 -3.6773,3.54605 h -1.61953 z m -2.14457,12.08199 h 2.71405 c 2.27629,0 3.58944,1.40063 3.58944,3.54553 0,2.80161 -1.97018,4.02715 -4.72788,4.02715 h -2.93263 z"
       sodipodi:nodetypes="cccccccccccccccccccccccccccsscssccccccccssscccssscc" /><path
       id="text1-8-6-17-5-1-3-65-5-5-9-2-3"
       style="font-size:43.774px;font-family:SansSerifBldFLF-Italic;-inkscape-font-specification:SansSerifBldFLF-Italic;display:inline;fill:#7f0000;fill-opacity:1;stroke-width:4.72465"
       d="m -472.51347,-292.16544 c -11.46879,0 -17.4656,8.6675 -17.4656,16.98451 0,7.70419 5.0774,14.97066 15.67088,14.97066 11.60003,0 17.55345,-8.44854 17.55345,-16.85324 0,-7.6603 -5.1217,-15.10193 -15.75873,-15.10193 z m -74.5293,0.13178 c -8.76498,0 -15.84554,7.08117 -15.84554,15.84606 0,8.76499 7.08056,15.84606 15.84554,15.84606 h 19.63756 c 8.76488,0 15.84555,-7.08108 15.84555,-15.84606 0,-8.76472 -7.08039,-15.84577 -15.84503,-15.84606 z m -37.82818,0.21859 -5.51543,31.25443 h 7.61659 l 2.05776,-11.59981 h 3.7207 c 7.48539,0 12.16928,-3.7645 12.16928,-10.4619 0,-5.55909 -3.89606,-9.19272 -9.93686,-9.19272 z m 80.00907,0 -5.51543,31.25443 h 15.97785 l 1.13791,-6.69726 h -8.36073 l 4.33359,-24.55717 z m -73.57432,6.69727 h 3.19567 c 1.7072,0 2.75797,1.26979 2.75797,2.80189 0,2.3199 -1.66359,3.45819 -3.67729,3.45819 h -3.41427 z m 105.48504,0.0879 c 5.60303,0 8.31681,4.15872 8.31681,8.09821 0,4.9901 -3.10784,9.67384 -9.10487,9.67384 -5.6468,0 -8.36073,-3.80843 -8.36073,-8.09822 0,-4.9465 3.1518,-9.67383 9.14879,-9.67383 z m -74.0916,0.37982 h 19.63756 c 4.6631,0 8.41913,3.75605 8.41913,8.41912 0,4.6632 -3.75603,8.41964 -8.41913,8.41964 h -19.63756 c -4.66309,0 -8.41912,-3.75644 -8.41912,-8.41964 0,-4.66308 3.75603,-8.41912 8.41912,-8.41912 z"
       sodipodi:nodetypes="sssssssssscsccccssscccccccccsssccssssssssssss" /><path
       id="text1-8-6-17-5-1-3-65-5-8-1-1-2"
       style="font-size:43.774px;font-family:SansSerifBldFLF-Italic;-inkscape-font-specification:SansSerifBldFLF-Italic;display:inline;fill:#000000;fill-opacity:1;stroke-width:4.72465"
       d="m -316.97925,-330.88392 c -7.61669,0 -11.95018,4.68393 -11.95018,9.45523 0,5.07779 3.23906,7.35363 8.18555,8.40413 2.9766,0.6129 3.89589,2.0139 3.89589,3.6773 0,2.1012 -1.40088,3.45819 -4.07107,3.45819 -3.2393,0 -5.47161,-1.26965 -7.44141,-2.93315 l -4.37751,5.12164 c 2.714,2.53891 6.34727,4.50878 11.24996,4.50878 8.53589,0 13.48238,-3.98335 13.48238,-10.76833 0,-4.90271 -2.93265,-7.87918 -8.62325,-9.10488 -2.14489,-0.4377 -2.97656,-1.48866 -2.97656,-2.49546 0,-1.88229 1.61951,-2.75745 3.72071,-2.75745 2.40749,0 3.85176,0.70019 5.60275,1.75079 l 3.54604,-5.51543 c -2.6703,-1.66339 -5.07791,-2.80137 -10.2433,-2.80136 z m 24.07553,0.17465 -15.10192,31.25495 h 7.61659 l 2.23242,-4.50876 h 9.93686 l 0.61289,4.50876 h 7.57266 l -4.15839,-31.25494 z m 35.68,0 -5.51543,31.25495 h 7.79177 l 3.19516,-18.34151 11.68766,18.34151 h 7.57318 l 5.51542,-31.25494 h -7.70444 l -3.32641,19.04173 -12.12536,-19.04173 z m 34.66868,0 -1.13791,6.69779 h 6.25956 l -4.33358,24.55716 h 7.57318 l 4.33358,-24.55716 h 6.25957 l 1.18184,-6.69779 z m -52.65932,5.2e-4 3.04168,6.69727 -4.33359,24.55716 h 7.57318 l 5.51543,-31.25443 z m -14.97531,10.19939 1.13843,9.58648 h -5.82238 z"
       sodipodi:nodetypes="sscssccsscssccsccccccccccccccccccccccccccccccccccccccc" /><path
       id="text1-8-6-17-5-1-3-65-5-4-4-3-2"
       style="font-size:43.774px;font-family:SansSerifBldFLF-Italic;-inkscape-font-specification:SansSerifBldFLF-Italic;display:inline;fill:#000000;fill-opacity:1;stroke-width:4.72465"
       d="m -142.399,-330.70358 -5.51594,31.25545 h 7.61711 l 2.36368,-13.43898 7.35407,13.43898 h 8.36072 l -9.28004,-16.89716 14.31436,-14.35829 h -8.36125 l -11.24995,11.29388 1.96991,-11.29388 z m 30.64205,0 -5.51594,31.25545 h 16.80983 l 1.13791,-6.69778 h -9.19272 l 1.00666,-5.60327 h 8.66768 l 1.18184,-6.69728 h -8.66717 l 1.00666,-5.55935 h 9.19272 l 1.13792,-6.69777 z m -71.11554,10e-4 -5.51595,31.25493 h 12.60699 c 6.87259,0 11.29388,-3.54573 11.29388,-10.06812 0,-4.1148 -2.84541,-6.08481 -4.81521,-6.5226 3.4144,-1.05051 4.72788,-3.54578 4.72788,-6.91637 0,-5.34051 -4.6839,-7.74784 -9.1488,-7.74784 z m 22.96397,0 3.04167,6.69726 -4.33358,24.55714 h 7.57318 l 5.51542,-31.25441 z m -16.35456,5.77792 h 1.57613 c 1.7072,0 2.58279,1.18196 2.58279,2.71404 0,2.5827 -1.401,3.54604 -3.6773,3.54604 h -1.61953 z m -2.14457,12.08197 h 2.71405 c 2.27629,0 3.58944,1.40064 3.58944,3.54554 0,2.8016 -1.97018,4.02715 -4.72788,4.02715 h -2.93263 z"
       sodipodi:nodetypes="cccccccccccccccccccccccccccsscssccccccccssscccssscc" /><path
       id="text1-8-6-17-5-1-3-65-5-5-9-1-8"
       style="font-size:43.774px;font-family:SansSerifBldFLF-Italic;-inkscape-font-specification:SansSerifBldFLF-Italic;display:inline;fill:#000000;fill-opacity:1;stroke-width:4.72465"
       d="m 36.99014,-331.05705 c -11.46879,0 -17.4656,8.66751 -17.4656,16.9845 0,7.7042 5.0774,14.97067 15.67088,14.97067 11.60003,0 17.55345,-8.44855 17.55345,-16.85324 0,-7.66031 -5.1217,-15.10193 -15.75873,-15.10193 z m -74.5293,0.13179 c -8.76498,0 -15.84554,7.08118 -15.84554,15.84606 0,8.76498 7.08056,15.84606 15.84554,15.84606 h 19.63756 c 8.76488,0 15.84555,-7.08108 15.84555,-15.84606 0,-8.76473 -7.08039,-15.84578 -15.84503,-15.84606 z m -37.82818,0.21858 -5.51543,31.25443 h 7.61659 l 2.05776,-11.59981 h 3.7207 c 7.48539,0 12.16928,-3.7645 12.16928,-10.4619 0,-5.55908 -3.89606,-9.19272 -9.93686,-9.19272 z m 80.00907,0 -5.51543,31.25443 h 15.97785 l 1.13791,-6.69726 H 7.88133 l 4.33359,-24.55717 z m -73.57432,6.69727 h 3.19567 c 1.7072,0 2.75797,1.26979 2.75797,2.8019 0,2.31989 -1.66359,3.45818 -3.67729,3.45818 h -3.41427 z m 105.48504,0.0879 c 5.60303,0 8.31681,4.1587 8.31681,8.0982 0,4.99009 -3.10784,9.67383 -9.10487,9.67383 -5.6468,0 -8.36073,-3.80842 -8.36073,-8.09822 0,-4.94649 3.1518,-9.67381 9.14879,-9.67381 z m -74.0916,0.37982 h 19.63756 c 4.6631,0 8.41913,3.75603 8.41913,8.41911 0,4.6632 -3.75603,8.41964 -8.41913,8.41964 h -19.63756 c -4.66309,0 -8.41912,-3.75644 -8.41912,-8.41964 0,-4.66308 3.75603,-8.41911 8.41912,-8.41911 z"
       sodipodi:nodetypes="sssssssssscsccccssscccccccccsssccssssssssssss" /><path
       id="text1-8-6-17-5-1-3-65-5-8-6-4-2-8"
       style="font-size:43.774px;font-family:SansSerifBldFLF-Italic;-inkscape-font-specification:SansSerifBldFLF-Italic;display:inline;fill:#000000;fill-opacity:1;stroke-width:4.72465"
       d="m 85.01869,-330.8999 c -7.61669,0 -11.95018,4.68392 -11.95018,9.45522 0,5.0778 3.23906,7.35365 8.18555,8.40415 2.9766,0.6129 3.89589,2.0139 3.89589,3.6773 0,2.1012 -1.40088,3.45819 -4.07107,3.45819 -3.2393,0 -5.47161,-1.26966 -7.44141,-2.93316 l -4.37751,5.12165 c 2.714,2.5389 6.34727,4.50878 11.24996,4.50878 8.53589,0 13.48238,-3.98335 13.48238,-10.76834 0,-4.9027 -2.93265,-7.87918 -8.62325,-9.10487 -2.14489,-0.4377 -2.97656,-1.48866 -2.97656,-2.49546 0,-1.88231 1.61951,-2.75746 3.72071,-2.75746 2.40749,0 3.85176,0.70019 5.60275,1.75078 l 3.54604,-5.51541 c -2.6703,-1.6634 -5.07791,-2.80137 -10.2433,-2.80137 z m 24.07553,0.17466 -15.10192,31.25494 h 7.61659 l 2.23242,-4.50877 h 9.93686 l 0.61289,4.50877 h 7.57266 l -4.1584,-31.25495 z m 35.68,0 -5.51543,31.25494 h 7.79177 l 3.19516,-18.34152 11.68766,18.34152 h 7.57318 l 5.51542,-31.25495 h -7.70444 l -3.32641,19.04174 -12.12536,-19.04174 z m 34.66868,0 -1.13791,6.69778 h 6.25956 l -4.33358,24.55716 h 7.57318 l 4.33358,-24.55716 h 6.25957 l 1.18184,-6.69778 z m -52.65932,5.1e-4 3.04168,6.69727 -4.33359,24.55715 h 7.57318 l 5.51543,-31.25442 z m -14.97531,10.19938 1.13843,9.58649 h -5.82238 z"
       sodipodi:nodetypes="sscssccsscssccsccccccccccccccccccccccccccccccccccccccc" /><path
       id="text1-8-6-17-5-1-3-65-5-8-1-5-6-2"
       style="font-size:43.774px;font-family:SansSerifBldFLF-Italic;-inkscape-font-specification:SansSerifBldFLF-Italic;display:inline;fill:#000000;fill-opacity:1;stroke-width:4.72465"
       d="m -718.97719,-330.86795 c -7.61669,0 -11.95018,4.68394 -11.95018,9.45524 0,5.07779 3.23906,7.35364 8.18555,8.40414 2.9766,0.6129 3.89589,2.0139 3.89589,3.6773 0,2.1012 -1.40088,3.45819 -4.07107,3.45819 -3.2393,0 -5.47161,-1.26966 -7.44141,-2.93316 l -4.37751,5.12165 c 2.714,2.53891 6.34727,4.50877 11.24996,4.50877 8.53589,0 13.48238,-3.98334 13.48238,-10.76833 0,-4.9027 -2.93265,-7.87918 -8.62325,-9.10487 -2.14489,-0.4377 -2.97656,-1.48867 -2.97656,-2.49547 0,-1.88229 1.61951,-2.75746 3.72071,-2.75746 2.40749,0 3.85176,0.70019 5.60275,1.7508 l 3.54604,-5.51543 c -2.6703,-1.66339 -5.07791,-2.80137 -10.2433,-2.80137 z m 24.07553,0.17467 -15.10192,31.25494 h 7.61659 l 2.23242,-4.50877 h 9.93686 l 0.61289,4.50877 h 7.57266 l -4.15839,-31.25496 z m 35.68,0 -5.51543,31.25494 h 7.79177 l 3.19516,-18.34152 11.68766,18.34152 h 7.57318 l 5.51542,-31.25496 h -7.70444 l -3.32641,19.04175 -12.12536,-19.04175 z m 34.66868,0 -1.13791,6.69779 h 6.25956 l -4.33358,24.55716 h 7.57318 l 4.33358,-24.55716 h 6.25957 l 1.18184,-6.69779 z m -52.65932,5.2e-4 3.04168,6.69726 -4.33359,24.55716 h 7.57318 l 5.51543,-31.25442 z m -14.97531,10.19938 1.13843,9.58648 h -5.82238 z"
       sodipodi:nodetypes="sscssccsscssccsccccccccccccccccccccccccccccccccccccccc" /><path
       id="text1-8-6-17-5-1-3-65-5-4-4-9-5-7"
       style="font-size:43.774px;font-family:SansSerifBldFLF-Italic;-inkscape-font-specification:SansSerifBldFLF-Italic;display:inline;fill:#7f0000;fill-opacity:1;stroke-width:4.72465"
       d="m -544.39694,-330.68761 -5.51594,31.25546 h 7.61711 l 2.36368,-13.43898 7.35407,13.43898 h 8.36072 l -9.28004,-16.89717 14.31436,-14.35829 h -8.36125 l -11.24995,11.29388 1.96991,-11.29388 z m 30.64205,0 -5.51594,31.25546 h 16.80983 l 1.13791,-6.69779 h -9.19272 l 1.00666,-5.60327 h 8.66768 l 1.18184,-6.69727 h -8.66717 l 1.00666,-5.55935 h 9.19272 l 1.13792,-6.69778 z m -71.11554,0.001 -5.51595,31.25492 h 12.60699 c 6.87259,0 11.29388,-3.54572 11.29388,-10.06811 0,-4.1148 -2.84541,-6.08481 -4.81521,-6.52261 3.4144,-1.05051 4.72788,-3.54578 4.72788,-6.91638 0,-5.34049 -4.6839,-7.74782 -9.1488,-7.74782 z m 22.96397,0 3.04167,6.69725 -4.33358,24.55716 h 7.57318 l 5.51542,-31.25441 z m -16.35456,5.77791 h 1.57613 c 1.7072,0 2.58279,1.18196 2.58279,2.71405 0,2.5827 -1.401,3.54604 -3.6773,3.54604 h -1.61953 z m -2.14457,12.08198 h 2.71405 c 2.27629,0 3.58944,1.40063 3.58944,3.54553 0,2.80161 -1.97018,4.02715 -4.72788,4.02715 h -2.93263 z"
       sodipodi:nodetypes="cccccccccccccccccccccccccccsscssccccccccssscccssscc" /><path
       id="text1-8-6-17-5-1-3-65-5-5-9-2-3-5"
       style="font-size:43.774px;font-family:SansSerifBldFLF-Italic;-inkscape-font-specification:SansSerifBldFLF-Italic;display:inline;fill:#000000;fill-opacity:1;stroke-width:4.72465"
       d="m -365.0078,-331.04106 c -11.46879,0 -17.4656,8.6675 -17.4656,16.9845 0,7.70419 5.0774,14.97066 15.67088,14.97066 11.60003,0 17.55345,-8.44854 17.55345,-16.85324 0,-7.6603 -5.1217,-15.10192 -15.75873,-15.10192 z m -74.5293,0.13178 c -8.76498,0 -15.84554,7.08116 -15.84554,15.84605 0,8.76499 7.08056,15.84606 15.84554,15.84606 h 19.63756 c 8.76488,0 15.84555,-7.08108 15.84555,-15.84606 0,-8.76471 -7.08039,-15.84576 -15.84503,-15.84605 z m -37.82818,0.21859 -5.51543,31.25443 h 7.61659 l 2.05776,-11.59982 h 3.7207 c 7.48539,0 12.16928,-3.7645 12.16928,-10.46189 0,-5.55909 -3.89606,-9.19272 -9.93686,-9.19272 z m 80.00907,0 -5.51543,31.25443 h 15.97785 l 1.13791,-6.69727 h -8.36073 l 4.33359,-24.55716 z m -73.57432,6.69727 h 3.19567 c 1.7072,0 2.75797,1.26979 2.75797,2.80189 0,2.31989 -1.66359,3.45818 -3.67729,3.45818 h -3.41427 z m 105.48504,0.0879 c 5.60303,0 8.31681,4.15871 8.31681,8.0982 0,4.9901 -3.10784,9.67384 -9.10487,9.67384 -5.6468,0 -8.36073,-3.80843 -8.36073,-8.09822 0,-4.9465 3.1518,-9.67382 9.14879,-9.67382 z m -74.0916,0.37981 h 19.63756 c 4.6631,0 8.41913,3.75605 8.41913,8.41912 0,4.6632 -3.75603,8.41964 -8.41913,8.41964 h -19.63756 c -4.66309,0 -8.41912,-3.75644 -8.41912,-8.41964 0,-4.66308 3.75603,-8.41912 8.41912,-8.41912 z"
       sodipodi:nodetypes="sssssssssscsccccssscccccccccsssccssssssssssss" /><path
       id="text1-8-6-17-5-1-3-65-5-8-1-1-0"
       style="font-size:43.774px;font-family:SansSerifBldFLF-Italic;-inkscape-font-specification:SansSerifBldFLF-Italic;display:inline;fill:#7f0000;fill-opacity:1;stroke-width:4.72465"
       d="m -574.62765,-369.99582 c -7.61669,0 -11.95018,4.68393 -11.95018,9.45523 0,5.0778 3.23906,7.35364 8.18555,8.40414 2.9766,0.6129 3.89589,2.0139 3.89589,3.6773 0,2.1012 -1.40088,3.45819 -4.07107,3.45819 -3.2393,0 -5.47161,-1.26965 -7.44141,-2.93315 l -4.37751,5.12164 c 2.714,2.53891 6.34727,4.50877 11.24996,4.50877 8.53589,0 13.48238,-3.98334 13.48238,-10.76832 0,-4.90271 -2.93265,-7.87918 -8.62325,-9.10488 -2.14489,-0.4377 -2.97656,-1.48867 -2.97656,-2.49547 0,-1.88229 1.61951,-2.75745 3.72071,-2.75745 2.40749,0 3.85176,0.70019 5.60275,1.75079 l 3.54604,-5.51542 c -2.6703,-1.6634 -5.07791,-2.80138 -10.2433,-2.80137 z m 24.07553,0.17466 -15.10192,31.25495 h 7.61659 l 2.23242,-4.50876 h 9.93686 l 0.61289,4.50876 h 7.57266 l -4.15839,-31.25495 z m 35.68001,0 -5.51543,31.25495 h 7.79177 l 3.19516,-18.34151 11.68765,18.34151 h 7.57318 l 5.51543,-31.25495 h -7.70445 l -3.32641,19.04174 -12.12536,-19.04174 z m 34.66867,0 -1.13791,6.69778 h 6.25956 l -4.33358,24.55717 h 7.57318 l 4.33358,-24.55717 h 6.25957 l 1.18184,-6.69778 z m -52.65932,5.2e-4 3.04169,6.69726 -4.3336,24.55717 h 7.57318 l 5.51543,-31.25443 z m -14.97531,10.19938 1.13843,9.58649 h -5.82238 z"
       sodipodi:nodetypes="sscssccsscssccsccccccccccccccccccccccccccccccccccccccc" /><path
       id="text1-8-6-17-5-1-3-65-5-4-4-3-1"
       style="font-size:43.774px;font-family:SansSerifBldFLF-Italic;-inkscape-font-specification:SansSerifBldFLF-Italic;display:inline;fill:#000000;fill-opacity:1;stroke-width:4.72465"
       d="m -400.0474,-369.81548 -5.51594,31.25546 h 7.61711 l 2.36368,-13.43898 7.35407,13.43898 h 8.36072 l -9.28003,-16.89716 14.31436,-14.3583 h -8.36125 l -11.24995,11.29389 1.96991,-11.29389 z m 30.64205,0 -5.51594,31.25546 h 16.80983 l 1.13791,-6.69778 h -9.19272 l 1.00666,-5.60327 h 8.66768 l 1.18184,-6.69728 h -8.66717 l 1.00666,-5.55936 h 9.19272 l 1.13792,-6.69777 z m -71.11554,10e-4 -5.51595,31.25493 h 12.60699 c 6.87259,0 11.29388,-3.54572 11.29388,-10.06811 0,-4.1148 -2.84541,-6.08481 -4.81521,-6.5226 3.4144,-1.05051 4.72788,-3.54578 4.72788,-6.91638 0,-5.34051 -4.6839,-7.74784 -9.1488,-7.74784 z m 22.96397,0 3.04167,6.69726 -4.33358,24.55714 h 7.57318 l 5.51542,-31.25441 z m -16.35456,5.77792 h 1.57613 c 1.7072,0 2.58279,1.18196 2.58279,2.71404 0,2.58271 -1.401,3.54605 -3.6773,3.54605 h -1.61953 z m -2.14457,12.08198 h 2.71405 c 2.27629,0 3.58944,1.40064 3.58944,3.54554 0,2.8016 -1.97018,4.02715 -4.72788,4.02715 h -2.93263 z"
       sodipodi:nodetypes="cccccccccccccccccccccccccccsscssccccccccssscccssscc" /><path
       id="text1-8-6-17-5-1-3-65-5-5-9-1-9"
       style="font-size:43.774px;font-family:SansSerifBldFLF-Italic;-inkscape-font-specification:SansSerifBldFLF-Italic;display:inline;fill:#000000;fill-opacity:1;stroke-width:4.72465"
       d="m -220.65826,-370.16894 c -11.46879,0 -17.4656,8.6675 -17.4656,16.9845 0,7.7042 5.07741,14.97067 15.67089,14.97067 11.60003,0 17.55344,-8.44855 17.55344,-16.85324 0,-7.66031 -5.12169,-15.10193 -15.75873,-15.10193 z m -74.52929,0.13178 c -8.76498,0 -15.84555,7.08118 -15.84555,15.84607 0,8.76498 7.08056,15.84606 15.84555,15.84606 h 19.63756 c 8.76488,0 15.84555,-7.08108 15.84555,-15.84606 0,-8.76473 -7.0804,-15.84578 -15.84503,-15.84607 z m -37.82818,0.21859 -5.51543,31.25443 h 7.61659 l 2.05775,-11.59981 h 3.72071 c 7.48539,0 12.16928,-3.7645 12.16928,-10.46191 0,-5.55908 -3.89606,-9.19271 -9.93686,-9.19271 z m 80.00907,0 -5.51543,31.25443 h 15.97785 l 1.13791,-6.69726 h -8.36073 l 4.33359,-24.55717 z m -73.57432,6.69726 h 3.19567 c 1.7072,0 2.75797,1.26979 2.75797,2.8019 0,2.3199 -1.66359,3.45819 -3.67729,3.45819 h -3.41427 z m 105.48504,0.0879 c 5.60303,0 8.31681,4.15871 8.31681,8.09821 0,4.99009 -3.10784,9.67383 -9.10487,9.67383 -5.6468,0 -8.36073,-3.80842 -8.36073,-8.09822 0,-4.94649 3.1518,-9.67382 9.14879,-9.67382 z m -74.0916,0.37982 h 19.63756 c 4.6631,0 8.41913,3.75604 8.41913,8.41912 0,4.6632 -3.75603,8.41964 -8.41913,8.41964 h -19.63756 c -4.66309,0 -8.41912,-3.75644 -8.41912,-8.41964 0,-4.66308 3.75603,-8.41912 8.41912,-8.41912 z"
       sodipodi:nodetypes="sssssssssscsccccssscccccccccsssccssssssssssss" /><path
       id="text1-8-6-17-5-1-3-65-5-8-6-4-2-7"
       style="font-size:43.774px;font-family:SansSerifBldFLF-Italic;-inkscape-font-specification:SansSerifBldFLF-Italic;display:inline;fill:#000000;fill-opacity:1;stroke-width:4.72465"
       d="m -172.62971,-370.0118 c -7.61669,0 -11.95018,4.68393 -11.95018,9.45523 0,5.0778 3.23906,7.35365 8.18555,8.40415 2.9766,0.6129 3.89589,2.0139 3.89589,3.6773 0,2.1012 -1.40087,3.45819 -4.07107,3.45819 -3.2393,0 -5.47161,-1.26966 -7.44141,-2.93316 l -4.37751,5.12165 c 2.714,2.5389 6.34727,4.50877 11.24996,4.50877 8.53589,0 13.48238,-3.98334 13.48238,-10.76833 0,-4.9027 -2.93265,-7.87918 -8.62325,-9.10487 -2.14489,-0.4377 -2.97656,-1.48867 -2.97656,-2.49547 0,-1.8823 1.61951,-2.75746 3.72071,-2.75746 2.40749,0 3.85176,0.70019 5.60275,1.75079 l 3.54604,-5.51542 c -2.6703,-1.66339 -5.07791,-2.80137 -10.2433,-2.80137 z m 24.07553,0.17466 -15.10192,31.25494 h 7.61659 l 2.23242,-4.50876 h 9.93686 l 0.61289,4.50876 h 7.57266 l -4.1584,-31.25495 z m 35.68001,0 -5.51544,31.25494 h 7.79178 l 3.19515,-18.34151 11.68767,18.34151 h 7.57318 l 5.51541,-31.25495 h -7.70444 l -3.32641,19.04175 -12.12536,-19.04175 z m 34.66867,0 -1.13791,6.69779 h 6.25956 l -4.33358,24.55716 h 7.57318 l 4.33358,-24.55716 h 6.25957 l 1.18184,-6.69779 z m -52.65932,5.2e-4 3.04168,6.69726 -4.33359,24.55716 h 7.57318 l 5.51543,-31.25442 z m -14.97531,10.19937 1.13844,9.5865 h -5.82239 z"
       sodipodi:nodetypes="sscssccsscssccsccccccccccccccccccccccccccccccccccccccc" /><path
       id="text1-8-6-17-5-1-3-65-5-8-1-5-6-9"
       style="font-size:43.774px;font-family:SansSerifBldFLF-Italic;-inkscape-font-specification:SansSerifBldFLF-Italic;display:inline;fill:#000000;fill-opacity:1;stroke-width:4.72465"
       d="m -976.62558,-369.97984 c -7.6167,0 -11.95018,4.68393 -11.95018,9.45523 0,5.0778 3.23906,7.35365 8.18554,8.40415 2.97661,0.6129 3.8959,2.0139 3.8959,3.6773 0,2.1012 -1.40088,3.45819 -4.07108,3.45819 -3.2393,0 -5.47161,-1.26966 -7.44141,-2.93316 l -4.37751,5.12165 c 2.714,2.5389 6.34727,4.50877 11.24996,4.50877 8.53589,0 13.48238,-3.98334 13.48238,-10.76833 0,-4.9027 -2.93265,-7.87918 -8.62325,-9.10487 -2.14489,-0.4377 -2.97656,-1.48868 -2.97656,-2.49548 0,-1.88229 1.61951,-2.75745 3.72071,-2.75745 2.40749,0 3.85176,0.70019 5.60275,1.75079 l 3.54604,-5.51542 c -2.6703,-1.66339 -5.0779,-2.80137 -10.24329,-2.80137 z m 24.07553,0.17466 -15.10192,31.25494 h 7.61658 l 2.23242,-4.50876 h 9.93687 l 0.61288,4.50876 h 7.57266 l -4.15839,-31.25495 z m 35.68,0 -5.51543,31.25494 h 7.79177 l 3.19516,-18.34151 11.68766,18.34151 h 7.57317 l 5.51542,-31.25495 h -7.70443 l -3.32641,19.04175 -12.12536,-19.04175 z m 34.66868,0 -1.13791,6.69779 h 6.25956 l -4.33359,24.55716 h 7.57319 l 4.33358,-24.55716 h 6.25957 l 1.18184,-6.69779 z m -52.65932,5.2e-4 3.04168,6.69726 -4.33359,24.55716 h 7.57317 l 5.51543,-31.25442 z m -14.97531,10.19938 1.13843,9.58649 h -5.82238 z"
       sodipodi:nodetypes="sscssccsscssccsccccccccccccccccccccccccccccccccccccccc" /><path
       id="text1-8-6-17-5-1-3-65-5-4-4-9-5-3"
       style="font-size:43.774px;font-family:SansSerifBldFLF-Italic;-inkscape-font-specification:SansSerifBldFLF-Italic;display:inline;fill:#000000;fill-opacity:1;stroke-width:4.72465"
       d="m -802.04533,-369.7995 -5.51594,31.25545 h 7.61711 l 2.36367,-13.43897 7.35408,13.43897 h 8.36071 l -9.28003,-16.89716 14.31435,-14.3583 h -8.36125 l -11.24995,11.29389 1.96991,-11.29389 z m 30.64205,0 -5.51594,31.25545 h 16.80983 l 1.13791,-6.69778 h -9.19272 l 1.00666,-5.60327 h 8.66768 l 1.18184,-6.69727 h -8.66717 l 1.00666,-5.55936 h 9.19272 l 1.13792,-6.69777 z m -71.11554,0.001 -5.51595,31.25492 h 12.60699 c 6.87259,0 11.29388,-3.54571 11.29388,-10.0681 0,-4.1148 -2.84541,-6.08481 -4.81521,-6.52261 3.4144,-1.05051 4.72787,-3.54578 4.72787,-6.91638 0,-5.3405 -4.68389,-7.74783 -9.14879,-7.74783 z m 22.96397,0 3.04167,6.69726 -4.33358,24.55715 h 7.57318 l 5.51542,-31.25441 z m -16.35456,5.77791 h 1.57613 c 1.7072,0 2.58279,1.18196 2.58279,2.71405 0,2.58271 -1.40101,3.54605 -3.6773,3.54605 h -1.61953 z m -2.14457,12.08199 h 2.71405 c 2.27628,0 3.58944,1.40063 3.58944,3.54553 0,2.80161 -1.97018,4.02715 -4.72788,4.02715 h -2.93263 z"
       sodipodi:nodetypes="cccccccccccccccccccccccccccsscssccccccccssscccssscc" /><path
       id="text1-8-6-17-5-1-3-65-5-5-9-2-3-0"
       style="font-size:43.774px;font-family:SansSerifBldFLF-Italic;-inkscape-font-specification:SansSerifBldFLF-Italic;display:inline;fill:#000000;fill-opacity:1;stroke-width:4.72465"
       d="m -622.6562,-370.15296 c -11.46879,0 -17.4656,8.6675 -17.4656,16.98451 0,7.70419 5.0774,14.97066 15.67088,14.97066 11.60003,0 17.55345,-8.44854 17.55345,-16.85324 0,-7.6603 -5.1217,-15.10193 -15.75873,-15.10193 z m -74.5293,0.13178 c -8.76498,0 -15.84554,7.08117 -15.84554,15.84606 0,8.76499 7.08056,15.84606 15.84554,15.84606 h 19.63756 c 8.76488,0 15.84555,-7.08108 15.84555,-15.84606 0,-8.76472 -7.08039,-15.84577 -15.84503,-15.84606 z m -37.82818,0.21859 -5.51543,31.25443 h 7.6166 l 2.05776,-11.59981 h 3.72069 c 7.48539,0 12.16928,-3.7645 12.16928,-10.4619 0,-5.55909 -3.89606,-9.19272 -9.93686,-9.19272 z m 80.00907,0 -5.51543,31.25443 h 15.97785 l 1.13791,-6.69726 h -8.36073 l 4.33359,-24.55717 z m -73.57432,6.69727 h 3.19567 c 1.7072,0 2.75797,1.26979 2.75797,2.80189 0,2.3199 -1.66359,3.45819 -3.67729,3.45819 h -3.41427 z m 105.48504,0.0879 c 5.60303,0 8.31681,4.15872 8.31681,8.09821 0,4.9901 -3.10784,9.67384 -9.10487,9.67384 -5.6468,0 -8.36073,-3.80843 -8.36073,-8.09822 0,-4.9465 3.1518,-9.67383 9.14879,-9.67383 z m -74.0916,0.37982 h 19.63756 c 4.6631,0 8.41913,3.75605 8.41913,8.41912 0,4.6632 -3.75603,8.41964 -8.41913,8.41964 h -19.63756 c -4.66309,0 -8.41912,-3.75644 -8.41912,-8.41964 0,-4.66308 3.75603,-8.41912 8.41912,-8.41912 z"
       sodipodi:nodetypes="sssssssssscsccccssscccccccccsssccssssssssssss" /><path
       id="text1-8-6-17-5-1-3-65-5-8-1-1-3"
       style="font-size:43.774px;font-family:SansSerifBldFLF-Italic;-inkscape-font-specification:SansSerifBldFLF-Italic;display:inline;fill:#000000;fill-opacity:1;stroke-width:4.72465"
       d="m -424.48492,-408.88491 c -7.61669,0 -11.95018,4.68393 -11.95018,9.45523 0,5.0778 3.23906,7.35364 8.18555,8.40414 2.9766,0.6129 3.89589,2.0139 3.89589,3.6773 0,2.1012 -1.40088,3.45819 -4.07107,3.45819 -3.2393,0 -5.47161,-1.26965 -7.44141,-2.93315 l -4.37751,5.12164 c 2.714,2.53891 6.34727,4.50877 11.24996,4.50877 8.53589,0 13.48238,-3.98334 13.48238,-10.76832 0,-4.90271 -2.93265,-7.87918 -8.62325,-9.10488 -2.14489,-0.4377 -2.97656,-1.48867 -2.97656,-2.49547 0,-1.88229 1.61951,-2.75745 3.72071,-2.75745 2.40749,0 3.85176,0.70019 5.60275,1.75079 l 3.54604,-5.51542 c -2.6703,-1.6634 -5.07791,-2.80138 -10.2433,-2.80137 z m 24.07553,0.17466 -15.10192,31.25495 h 7.61659 l 2.23242,-4.50876 h 9.93686 l 0.61289,4.50876 h 7.57266 l -4.15839,-31.25495 z m 35.68,0 -5.51543,31.25495 h 7.79177 l 3.19516,-18.34151 11.68766,18.34151 h 7.57318 l 5.51542,-31.25495 h -7.70444 l -3.32641,19.04174 -12.12536,-19.04174 z m 34.66868,0 -1.13791,6.69778 h 6.25956 l -4.33358,24.55717 h 7.57318 l 4.33358,-24.55717 h 6.25957 l 1.18184,-6.69778 z m -52.65932,5.2e-4 3.04168,6.69726 -4.33359,24.55717 h 7.57318 l 5.51543,-31.25443 z m -14.97531,10.19938 1.13843,9.58649 h -5.82238 z"
       sodipodi:nodetypes="sscssccsscssccsccccccccccccccccccccccccccccccccccccccc" /><path
       id="text1-8-6-17-5-1-3-65-5-4-4-3-3"
       style="font-size:43.774px;font-family:SansSerifBldFLF-Italic;-inkscape-font-specification:SansSerifBldFLF-Italic;display:inline;fill:#000000;fill-opacity:1;stroke-width:4.72465"
       d="m -249.90467,-408.70457 -5.51594,31.25546 h 7.61711 l 2.36368,-13.43898 7.35407,13.43898 h 8.36072 l -9.28004,-16.89716 14.31436,-14.3583 h -8.36125 l -11.24995,11.29389 1.96991,-11.29389 z m 30.64205,0 -5.51594,31.25546 h 16.80983 l 1.13791,-6.69778 h -9.19272 l 1.00666,-5.60327 h 8.66768 l 1.18184,-6.69728 h -8.66717 l 1.00666,-5.55936 h 9.19272 l 1.13792,-6.69777 z m -71.11554,10e-4 -5.51595,31.25493 h 12.60699 c 6.87259,0 11.29388,-3.54572 11.29388,-10.06811 0,-4.1148 -2.84541,-6.08481 -4.81521,-6.5226 3.4144,-1.05051 4.72788,-3.54578 4.72788,-6.91638 0,-5.34051 -4.6839,-7.74784 -9.1488,-7.74784 z m 22.96397,0 3.04167,6.69726 -4.33358,24.55714 h 7.57318 l 5.51542,-31.25441 z m -16.35456,5.77792 h 1.57613 c 1.7072,0 2.58279,1.18196 2.58279,2.71404 0,2.58271 -1.401,3.54605 -3.6773,3.54605 h -1.61953 z m -2.14457,12.08198 h 2.71405 c 2.27629,0 3.58944,1.40064 3.58944,3.54554 0,2.8016 -1.97018,4.02715 -4.72788,4.02715 h -2.93263 z"
       sodipodi:nodetypes="cccccccccccccccccccccccccccsscssccccccccssscccssscc" /><path
       id="text1-8-6-17-5-1-3-65-5-5-9-1-6"
       style="font-size:43.774px;font-family:SansSerifBldFLF-Italic;-inkscape-font-specification:SansSerifBldFLF-Italic;display:inline;fill:#000000;fill-opacity:1;stroke-width:4.72465"
       d="m -70.51553,-409.05803 c -11.46879,0 -17.4656,8.6675 -17.4656,16.9845 0,7.7042 5.0774,14.97067 15.67088,14.97067 11.60003,0 17.55345,-8.44855 17.55345,-16.85324 0,-7.66031 -5.1217,-15.10193 -15.75873,-15.10193 z m -74.5293,0.13178 c -8.76498,0 -15.84554,7.08118 -15.84554,15.84607 0,8.76498 7.08056,15.84606 15.84554,15.84606 h 19.63756 c 8.76488,0 15.84555,-7.08108 15.84555,-15.84606 0,-8.76473 -7.08039,-15.84578 -15.84503,-15.84607 z m -37.82818,0.21859 -5.51543,31.25443 h 7.61659 l 2.05776,-11.59981 h 3.7207 c 7.48539,0 12.16928,-3.7645 12.16928,-10.46191 0,-5.55908 -3.89606,-9.19271 -9.93686,-9.19271 z m 80.00907,0 -5.51543,31.25443 h 15.97785 l 1.13791,-6.69726 h -8.36073 l 4.33359,-24.55717 z m -73.57432,6.69726 h 3.19567 c 1.7072,0 2.75797,1.26979 2.75797,2.8019 0,2.3199 -1.66359,3.45819 -3.67729,3.45819 h -3.41427 z m 105.48504,0.0879 c 5.60303,0 8.31681,4.15871 8.31681,8.09821 0,4.99009 -3.10784,9.67383 -9.10487,9.67383 -5.6468,0 -8.36073,-3.80842 -8.36073,-8.09822 0,-4.94649 3.1518,-9.67382 9.14879,-9.67382 z m -74.0916,0.37982 h 19.63756 c 4.6631,0 8.41913,3.75604 8.41913,8.41912 0,4.6632 -3.75603,8.41964 -8.41913,8.41964 h -19.63756 c -4.66309,0 -8.41912,-3.75644 -8.41912,-8.41964 0,-4.66308 3.75603,-8.41912 8.41912,-8.41912 z"
       sodipodi:nodetypes="sssssssssscsccccssscccccccccsssccssssssssssss" /><path
       id="text1-8-6-17-5-1-3-65-5-8-6-4-2-4"
       style="font-size:43.774px;font-family:SansSerifBldFLF-Italic;-inkscape-font-specification:SansSerifBldFLF-Italic;display:inline;fill:#000000;fill-opacity:1;stroke-width:4.72465"
       d="m -22.48698,-408.90089 c -7.61669,0 -11.95018,4.68393 -11.95018,9.45523 0,5.0778 3.23906,7.35365 8.18555,8.40415 2.9766,0.6129 3.89589,2.0139 3.89589,3.6773 0,2.1012 -1.40088,3.45819 -4.07107,3.45819 -3.2393,0 -5.47161,-1.26966 -7.44141,-2.93316 l -4.37751,5.12165 c 2.714,2.5389 6.34727,4.50877 11.24996,4.50877 8.53589,0 13.48238,-3.98334 13.48238,-10.76833 0,-4.9027 -2.93265,-7.87918 -8.62325,-9.10487 -2.14489,-0.4377 -2.97656,-1.48867 -2.97656,-2.49547 0,-1.8823 1.61951,-2.75746 3.72071,-2.75746 2.40749,0 3.85176,0.70019 5.60275,1.75079 l 3.54604,-5.51542 c -2.6703,-1.66339 -5.07791,-2.80137 -10.2433,-2.80137 z m 24.07553,0.17466 -15.10192,31.25494 h 7.61659 l 2.23242,-4.50876 H 6.2725 l 0.61289,4.50876 h 7.57266 l -4.1584,-31.25495 z m 35.68,0 -5.51543,31.25494 h 7.79177 l 3.19516,-18.34151 11.68766,18.34151 h 7.57318 l 5.51542,-31.25495 h -7.70444 l -3.32641,19.04175 -12.12536,-19.04175 z m 34.66868,0 -1.13791,6.69779 h 6.25956 l -4.33358,24.55716 h 7.57318 l 4.33358,-24.55716 h 6.25957 l 1.18184,-6.69779 z m -52.65932,5.2e-4 3.04168,6.69726 -4.33359,24.55716 h 7.57318 l 5.51543,-31.25442 z m -14.97531,10.19937 1.13843,9.5865 h -5.82238 z"
       sodipodi:nodetypes="sscssccsscssccsccccccccccccccccccccccccccccccccccccccc" /><path
       id="text1-8-6-17-5-1-3-65-5-8-1-5-6-7"
       style="font-size:43.774px;font-family:SansSerifBldFLF-Italic;-inkscape-font-specification:SansSerifBldFLF-Italic;display:inline;fill:#000000;fill-opacity:1;stroke-width:4.72465"
       d="m -826.48286,-408.86893 c -7.61669,0 -11.95018,4.68393 -11.95018,9.45523 0,5.0778 3.23906,7.35365 8.18555,8.40415 2.9766,0.6129 3.89589,2.0139 3.89589,3.6773 0,2.1012 -1.40088,3.45819 -4.07107,3.45819 -3.2393,0 -5.47161,-1.26966 -7.44141,-2.93316 l -4.37751,5.12165 c 2.714,2.5389 6.34727,4.50877 11.24996,4.50877 8.53589,0 13.48238,-3.98334 13.48238,-10.76833 0,-4.9027 -2.93265,-7.87918 -8.62325,-9.10487 -2.14489,-0.4377 -2.97656,-1.48868 -2.97656,-2.49548 0,-1.88229 1.61951,-2.75745 3.72071,-2.75745 2.40749,0 3.85176,0.70019 5.60275,1.75079 l 3.54604,-5.51542 c -2.6703,-1.66339 -5.07791,-2.80137 -10.2433,-2.80137 z m 24.07553,0.17466 -15.10192,31.25494 h 7.61659 l 2.23242,-4.50876 h 9.93686 l 0.61289,4.50876 h 7.57266 l -4.15839,-31.25495 z m 35.68,0 -5.51543,31.25494 h 7.79177 l 3.19516,-18.34151 11.68766,18.34151 h 7.57318 l 5.51542,-31.25495 h -7.70444 l -3.32641,19.04175 -12.12536,-19.04175 z m 34.66868,0 -1.13791,6.69779 h 6.25956 l -4.33358,24.55716 h 7.57318 l 4.33358,-24.55716 h 6.25957 l 1.18184,-6.69779 z m -52.65932,5.2e-4 3.04168,6.69726 -4.33359,24.55716 h 7.57318 l 5.51543,-31.25442 z m -14.97531,10.19938 1.13843,9.58649 h -5.82238 z"
       sodipodi:nodetypes="sscssccsscssccsccccccccccccccccccccccccccccccccccccccc" /><path
       id="text1-8-6-17-5-1-3-65-5-4-4-9-5-72"
       style="font-size:43.774px;font-family:SansSerifBldFLF-Italic;-inkscape-font-specification:SansSerifBldFLF-Italic;display:inline;fill:#000000;fill-opacity:1;stroke-width:4.72465"
       d="m -651.90261,-408.68859 -5.51594,31.25545 h 7.61711 l 2.36368,-13.43897 7.35407,13.43897 h 8.36072 l -9.28004,-16.89716 14.31436,-14.3583 h -8.36125 l -11.24995,11.29389 1.96991,-11.29389 z m 30.64205,0 -5.51594,31.25545 h 16.80983 l 1.13791,-6.69778 h -9.19272 l 1.00666,-5.60327 h 8.66768 l 1.18184,-6.69727 h -8.66717 l 1.00666,-5.55936 h 9.19272 l 1.13792,-6.69777 z m -71.11554,10e-4 -5.51595,31.25492 h 12.60699 c 6.87259,0 11.29388,-3.54571 11.29388,-10.0681 0,-4.1148 -2.84541,-6.08481 -4.81521,-6.52261 3.4144,-1.05051 4.72788,-3.54578 4.72788,-6.91638 0,-5.3405 -4.6839,-7.74783 -9.1488,-7.74783 z m 22.96397,0 3.04167,6.69726 -4.33358,24.55715 h 7.57318 l 5.51542,-31.25441 z m -16.35456,5.77791 h 1.57613 c 1.7072,0 2.58279,1.18196 2.58279,2.71405 0,2.58271 -1.401,3.54605 -3.6773,3.54605 h -1.61953 z m -2.14457,12.08199 h 2.71405 c 2.27629,0 3.58944,1.40063 3.58944,3.54553 0,2.80161 -1.97018,4.02715 -4.72788,4.02715 h -2.93263 z"
       sodipodi:nodetypes="cccccccccccccccccccccccccccsscssccccccccssscccssscc" /><path
       id="text1-8-6-17-5-1-3-65-5-5-9-2-3-6"
       style="font-size:43.774px;font-family:SansSerifBldFLF-Italic;-inkscape-font-specification:SansSerifBldFLF-Italic;display:inline;fill:#000000;fill-opacity:1;stroke-width:4.72465"
       d="m -472.51347,-409.04205 c -11.46879,0 -17.4656,8.6675 -17.4656,16.98451 0,7.70419 5.0774,14.97066 15.67088,14.97066 11.60003,0 17.55345,-8.44854 17.55345,-16.85324 0,-7.6603 -5.1217,-15.10193 -15.75873,-15.10193 z m -74.5293,0.13178 c -8.76498,0 -15.84554,7.08117 -15.84554,15.84606 0,8.76499 7.08056,15.84606 15.84554,15.84606 h 19.63756 c 8.76488,0 15.84555,-7.08108 15.84555,-15.84606 0,-8.76472 -7.08039,-15.84577 -15.84503,-15.84606 z m -37.82818,0.21859 -5.51543,31.25443 h 7.61659 l 2.05776,-11.59981 h 3.7207 c 7.48539,0 12.16928,-3.7645 12.16928,-10.4619 0,-5.55909 -3.89606,-9.19272 -9.93686,-9.19272 z m 80.00907,0 -5.51543,31.25443 h 15.97785 l 1.13791,-6.69726 h -8.36073 l 4.33359,-24.55717 z m -73.57432,6.69727 h 3.19567 c 1.7072,0 2.75797,1.26979 2.75797,2.80189 0,2.3199 -1.66359,3.45819 -3.67729,3.45819 h -3.41427 z m 105.48504,0.0879 c 5.60303,0 8.31681,4.15872 8.31681,8.09821 0,4.9901 -3.10784,9.67384 -9.10487,9.67384 -5.6468,0 -8.36073,-3.80843 -8.36073,-8.09822 0,-4.9465 3.1518,-9.67383 9.14879,-9.67383 z m -74.0916,0.37982 h 19.63756 c 4.6631,0 8.41913,3.75605 8.41913,8.41912 0,4.6632 -3.75603,8.41964 -8.41913,8.41964 h -19.63756 c -4.66309,0 -8.41912,-3.75644 -8.41912,-8.41964 0,-4.66308 3.75603,-8.41912 8.41912,-8.41912 z"
       sodipodi:nodetypes="sssssssssscsccccssscccccccccsssccssssssssssss" /><path
       id="text1-8-6-17-5-1-3-65-5-8-1-1-5"
       style="font-size:43.774px;font-family:SansSerifBldFLF-Italic;-inkscape-font-specification:SansSerifBldFLF-Italic;display:inline;fill:#000000;fill-opacity:1;stroke-width:4.72465"
       d="m -574.62765,-253.38172 c -7.61669,0 -11.95018,4.68393 -11.95018,9.45523 0,5.0778 3.23906,7.35364 8.18555,8.40414 2.9766,0.6129 3.89589,2.0139 3.89589,3.6773 0,2.1012 -1.40088,3.45819 -4.07107,3.45819 -3.2393,0 -5.47161,-1.26965 -7.44141,-2.93315 l -4.37751,5.12164 c 2.714,2.53891 6.34727,4.50877 11.24996,4.50877 8.53589,0 13.48238,-3.98334 13.48238,-10.76832 0,-4.90271 -2.93265,-7.87918 -8.62325,-9.10488 -2.14489,-0.4377 -2.97656,-1.48867 -2.97656,-2.49547 0,-1.88229 1.61951,-2.75745 3.72071,-2.75745 2.40749,0 3.85176,0.70019 5.60275,1.75079 l 3.54604,-5.51542 c -2.6703,-1.6634 -5.07791,-2.80138 -10.2433,-2.80137 z m 24.07553,0.17466 -15.10192,31.25495 h 7.61659 l 2.23242,-4.50876 h 9.93686 l 0.61289,4.50876 h 7.57266 l -4.15839,-31.25495 z m 35.68,0 -5.51543,31.25495 h 7.79177 l 3.19516,-18.34151 11.68766,18.34151 h 7.57318 l 5.51542,-31.25495 h -7.70444 l -3.32641,19.04174 -12.12536,-19.04174 z m 34.66868,0 -1.13791,6.69778 h 6.25956 l -4.33358,24.55717 h 7.57318 l 4.33358,-24.55717 h 6.25957 l 1.18184,-6.69778 z m -52.65932,5.2e-4 3.04168,6.69726 -4.33359,24.55717 h 7.57318 l 5.51543,-31.25443 z m -14.97531,10.19938 1.13843,9.58649 h -5.82238 z"
       sodipodi:nodetypes="sscssccsscssccsccccccccccccccccccccccccccccccccccccccc" /><path
       id="text1-8-6-17-5-1-3-65-5-4-4-3-8"
       style="font-size:43.774px;font-family:SansSerifBldFLF-Italic;-inkscape-font-specification:SansSerifBldFLF-Italic;display:inline;fill:#000000;fill-opacity:1;stroke-width:4.72465"
       d="m -400.0474,-253.20138 -5.51594,31.25546 h 7.61711 l 2.36368,-13.43898 7.35407,13.43898 h 8.36072 l -9.28004,-16.89716 14.31436,-14.3583 h -8.36125 l -11.24995,11.29389 1.96991,-11.29389 z m 30.64205,0 -5.51594,31.25546 h 16.80983 l 1.13791,-6.69778 h -9.19272 l 1.00666,-5.60327 h 8.66768 l 1.18184,-6.69728 h -8.66717 l 1.00666,-5.55936 h 9.19272 l 1.13792,-6.69777 z m -71.11554,0.001 -5.51595,31.25493 h 12.60699 c 6.87259,0 11.29388,-3.54572 11.29388,-10.06811 0,-4.1148 -2.84541,-6.08481 -4.81521,-6.5226 3.4144,-1.05051 4.72788,-3.54578 4.72788,-6.91638 0,-5.34051 -4.6839,-7.74784 -9.1488,-7.74784 z m 22.96397,0 3.04167,6.69726 -4.33358,24.55714 h 7.57318 l 5.51542,-31.25441 z m -16.35456,5.77792 h 1.57613 c 1.7072,0 2.58279,1.18196 2.58279,2.71404 0,2.58271 -1.401,3.54605 -3.6773,3.54605 h -1.61953 z m -2.14457,12.08198 h 2.71405 c 2.27629,0 3.58944,1.40064 3.58944,3.54554 0,2.8016 -1.97018,4.02715 -4.72788,4.02715 h -2.93263 z"
       sodipodi:nodetypes="cccccccccccccccccccccccccccsscssccccccccssscccssscc" /><path
       id="text1-8-6-17-5-1-3-65-5-5-9-1-85"
       style="font-size:43.774px;font-family:SansSerifBldFLF-Italic;-inkscape-font-specification:SansSerifBldFLF-Italic;display:inline;fill:#000000;fill-opacity:1;stroke-width:4.72465"
       d="m -220.65826,-253.55484 c -11.46879,0 -17.4656,8.6675 -17.4656,16.9845 0,7.7042 5.0774,14.97067 15.67088,14.97067 11.60003,0 17.55345,-8.44855 17.55345,-16.85324 0,-7.66031 -5.1217,-15.10193 -15.75873,-15.10193 z m -74.5293,0.13178 c -8.76498,0 -15.84554,7.08118 -15.84554,15.84607 0,8.76498 7.08056,15.84606 15.84554,15.84606 H -275.55 c 8.76488,0 15.84555,-7.08108 15.84555,-15.84606 0,-8.76473 -7.08039,-15.84578 -15.84503,-15.84607 z m -37.82818,0.21859 -5.51543,31.25443 h 7.61659 l 2.05776,-11.59981 h 3.7207 c 7.48539,0 12.16928,-3.7645 12.16928,-10.46191 0,-5.55908 -3.89606,-9.19271 -9.93686,-9.19271 z m 80.00907,0 -5.51543,31.25443 h 15.97785 l 1.13791,-6.69726 h -8.36073 l 4.33359,-24.55717 z m -73.57432,6.69726 h 3.19567 c 1.7072,0 2.75797,1.26979 2.75797,2.8019 0,2.3199 -1.66359,3.45819 -3.67729,3.45819 h -3.41427 z m 105.48504,0.0879 c 5.60303,0 8.31681,4.15871 8.31681,8.09821 0,4.99009 -3.10784,9.67383 -9.10487,9.67383 -5.6468,0 -8.36073,-3.80842 -8.36073,-8.09822 0,-4.94649 3.1518,-9.67382 9.14879,-9.67382 z m -74.0916,0.37982 h 19.63756 c 4.6631,0 8.41913,3.75604 8.41913,8.41912 0,4.6632 -3.75603,8.41964 -8.41913,8.41964 h -19.63756 c -4.66309,0 -8.41912,-3.75644 -8.41912,-8.41964 0,-4.66308 3.75603,-8.41912 8.41912,-8.41912 z"
       sodipodi:nodetypes="sssssssssscsccccssscccccccccsssccssssssssssss" /><path
       id="text1-8-6-17-5-1-3-65-5-8-6-4-2-87"
       style="font-size:43.774px;font-family:SansSerifBldFLF-Italic;-inkscape-font-specification:SansSerifBldFLF-Italic;display:inline;fill:#000000;fill-opacity:1;stroke-width:4.72465"
       d="m -172.62971,-253.3977 c -7.61669,0 -11.95018,4.68393 -11.95018,9.45523 0,5.0778 3.23906,7.35365 8.18555,8.40415 2.9766,0.6129 3.89589,2.0139 3.89589,3.6773 0,2.1012 -1.40088,3.45819 -4.07107,3.45819 -3.2393,0 -5.47161,-1.26966 -7.44141,-2.93316 l -4.37751,5.12165 c 2.714,2.5389 6.34727,4.50877 11.24996,4.50877 8.53589,0 13.48238,-3.98334 13.48238,-10.76833 0,-4.9027 -2.93265,-7.87918 -8.62325,-9.10487 -2.14489,-0.4377 -2.97656,-1.48867 -2.97656,-2.49547 0,-1.8823 1.61951,-2.75746 3.72071,-2.75746 2.40749,0 3.85176,0.70019 5.60275,1.75079 l 3.54604,-5.51542 c -2.6703,-1.66339 -5.07791,-2.80137 -10.2433,-2.80137 z m 24.07553,0.17466 -15.10192,31.25494 h 7.61659 l 2.23242,-4.50876 h 9.93686 l 0.61289,4.50876 h 7.57266 l -4.1584,-31.25495 z m 35.68,0 -5.51543,31.25494 h 7.79177 l 3.19516,-18.34151 11.68766,18.34151 h 7.57318 l 5.51542,-31.25495 h -7.70444 l -3.32641,19.04175 -12.12536,-19.04175 z m 34.66868,0 -1.13791,6.69779 h 6.25956 l -4.33358,24.55716 h 7.57318 l 4.33358,-24.55716 h 6.25957 l 1.18184,-6.69779 z m -52.65932,5.2e-4 3.04168,6.69726 -4.33359,24.55716 h 7.57318 l 5.51543,-31.25442 z m -14.97531,10.19937 1.13843,9.5865 h -5.82238 z"
       sodipodi:nodetypes="sscssccsscssccsccccccccccccccccccccccccccccccccccccccc" /><path
       id="text1-8-6-17-5-1-3-65-5-8-1-5-6-0"
       style="font-size:43.774px;font-family:SansSerifBldFLF-Italic;-inkscape-font-specification:SansSerifBldFLF-Italic;display:inline;fill:#000000;fill-opacity:1;stroke-width:4.72465"
       d="m -976.62559,-253.36574 c -7.61669,0 -11.95018,4.68393 -11.95018,9.45523 0,5.0778 3.23906,7.35365 8.18555,8.40415 2.9766,0.6129 3.89589,2.0139 3.89589,3.6773 0,2.1012 -1.40088,3.45819 -4.07107,3.45819 -3.2393,0 -5.47161,-1.26966 -7.44141,-2.93316 l -4.37751,5.12165 c 2.714,2.5389 6.34727,4.50877 11.24996,4.50877 8.53589,0 13.48238,-3.98334 13.48238,-10.76833 0,-4.9027 -2.93265,-7.87918 -8.62325,-9.10487 -2.14489,-0.4377 -2.97656,-1.48868 -2.97656,-2.49548 0,-1.88229 1.61951,-2.75745 3.72071,-2.75745 2.40749,0 3.85176,0.70019 5.60275,1.75079 l 3.54604,-5.51542 c -2.6703,-1.66339 -5.07791,-2.80137 -10.2433,-2.80137 z m 24.07553,0.17466 -15.10192,31.25494 h 7.61659 l 2.23242,-4.50876 h 9.93686 l 0.61289,4.50876 h 7.57266 l -4.15839,-31.25495 z m 35.68,0 -5.51543,31.25494 h 7.79177 l 3.19516,-18.34151 11.68766,18.34151 h 7.57318 l 5.51542,-31.25495 h -7.70444 l -3.32641,19.04175 -12.12536,-19.04175 z m 34.66868,0 -1.13791,6.69779 h 6.25956 l -4.33358,24.55716 h 7.57318 l 4.33358,-24.55716 h 6.25957 l 1.18184,-6.69779 z m -52.65932,5.2e-4 3.04168,6.69726 -4.33359,24.55716 h 7.57318 l 5.51543,-31.25442 z m -14.97531,10.19938 1.13843,9.58649 h -5.82238 z"
       sodipodi:nodetypes="sscssccsscssccsccccccccccccccccccccccccccccccccccccccc" /><path
       id="text1-8-6-17-5-1-3-65-5-4-4-9-5-9"
       style="font-size:43.774px;font-family:SansSerifBldFLF-Italic;-inkscape-font-specification:SansSerifBldFLF-Italic;display:inline;fill:#000000;fill-opacity:1;stroke-width:4.72465"
       d="m -802.04534,-253.1854 -5.51594,31.25545 h 7.61711 l 2.36368,-13.43897 7.35407,13.43897 h 8.36072 l -9.28004,-16.89716 14.31436,-14.3583 h -8.36125 l -11.24995,11.29389 1.96991,-11.29389 z m 30.64205,0 -5.51594,31.25545 h 16.80983 l 1.13791,-6.69778 h -9.19272 l 1.00666,-5.60327 h 8.66768 l 1.18184,-6.69727 h -8.66717 l 1.00666,-5.55936 h 9.19272 l 1.13792,-6.69777 z m -71.11554,10e-4 -5.51595,31.25492 h 12.60699 c 6.87259,0 11.29388,-3.54571 11.29388,-10.0681 0,-4.1148 -2.84541,-6.08481 -4.81521,-6.52261 3.4144,-1.05051 4.72788,-3.54578 4.72788,-6.91638 0,-5.3405 -4.6839,-7.74783 -9.1488,-7.74783 z m 22.96397,0 3.04167,6.69726 -4.33358,24.55715 h 7.57318 l 5.51542,-31.25441 z m -16.35456,5.77791 h 1.57613 c 1.7072,0 2.58279,1.18196 2.58279,2.71405 0,2.58271 -1.401,3.54605 -3.6773,3.54605 h -1.61953 z m -2.14457,12.08199 h 2.71405 c 2.27629,0 3.58944,1.40063 3.58944,3.54553 0,2.80161 -1.97018,4.02715 -4.72788,4.02715 h -2.93263 z"
       sodipodi:nodetypes="cccccccccccccccccccccccccccsscssccccccccssscccssscc" /><path
       id="text1-8-6-17-5-1-3-65-5-5-9-2-3-2"
       style="font-size:43.774px;font-family:SansSerifBldFLF-Italic;-inkscape-font-specification:SansSerifBldFLF-Italic;display:inline;fill:#000000;fill-opacity:1;stroke-width:4.72465"
       d="m -622.6562,-253.53886 c -11.46879,0 -17.4656,8.6675 -17.4656,16.98451 0,7.70419 5.0774,14.97066 15.67088,14.97066 11.60003,0 17.55345,-8.44854 17.55345,-16.85324 0,-7.6603 -5.1217,-15.10193 -15.75873,-15.10193 z m -74.5293,0.13178 c -8.76498,0 -15.84554,7.08117 -15.84554,15.84606 0,8.76499 7.08056,15.84606 15.84554,15.84606 h 19.63756 c 8.76488,0 15.84555,-7.08108 15.84555,-15.84606 0,-8.76472 -7.08039,-15.84577 -15.84503,-15.84606 z m -37.82818,0.21859 -5.51543,31.25443 h 7.61659 l 2.05776,-11.59981 h 3.72071 c 7.48538,0 12.16927,-3.7645 12.16927,-10.4619 0,-5.55909 -3.89606,-9.19272 -9.93686,-9.19272 z m 80.00907,0 -5.51543,31.25443 h 15.97785 l 1.13791,-6.69726 h -8.36073 l 4.33359,-24.55717 z m -73.57432,6.69727 h 3.19567 c 1.7072,0 2.75797,1.26979 2.75797,2.80189 0,2.3199 -1.66359,3.45819 -3.67729,3.45819 h -3.41427 z m 105.48504,0.0879 c 5.60303,0 8.31681,4.15872 8.31681,8.09821 0,4.9901 -3.10784,9.67384 -9.10487,9.67384 -5.6468,0 -8.36073,-3.80843 -8.36073,-8.09822 0,-4.9465 3.1518,-9.67383 9.14879,-9.67383 z m -74.0916,0.37982 h 19.63756 c 4.6631,0 8.41913,3.75605 8.41913,8.41912 0,4.6632 -3.75603,8.41964 -8.41913,8.41964 h -19.63756 c -4.66308,0 -8.41911,-3.75644 -8.41911,-8.41964 0,-4.66308 3.75602,-8.41912 8.41911,-8.41912 z"
       sodipodi:nodetypes="sssssssssscsccccssscccccccccsssccssssssssssss" /><g
       id="g1"><g
         id="g21"><rect
           style="display:inline;fill:#ffffff;fill-opacity:1;stroke-width:0.342686"
           id="rect2-1-9-4-3-1-1-5-8-0-8-7-5-7-9"
           width="210"
           height="210"
           x="0"
           y="0" /><path
           id="path8-8"
           style="display:inline;fill:#000000;fill-opacity:1;stroke-width:1.24701;stroke-linecap:round;paint-order:markers stroke fill"
           d="m 104.99919,66.779275 -23.87121,5.90603 3.56354,5.30596 -16.62066,4.31119 -4.1411,-5.55786 -23.82469,5.55786 0.0401,18.547595 8.92882,2.71636 v 2.86717 l -8.92882,2.71637 -0.0401,18.54759 23.82469,5.55785 4.1411,-5.55785 16.62066,4.31119 -3.56354,5.30596 23.87121,5.90603 23.87283,-5.90603 -3.56354,-5.30596 16.62066,-4.31119 4.1411,5.55785 23.82469,-5.55785 -0.0401,-18.54759 -8.92882,-2.71636 v -2.86717 l 8.92882,-2.71636 0.0401,-18.547605 -23.82469,-5.55786 -4.1411,5.55786 -16.62066,-4.31119 3.56354,-5.30596 z m 0,8.48922 9.21606,2.50296 -3.37258,5.49528 35.22757,9.0203 4.36737,-6.06969 9.24651,2.21256 v 5.89961 l -8.40736,2.72919 v 15.882585 l 8.40736,2.72919 v 5.89961 l -9.24651,2.21256 -4.36737,-6.06969 -35.22757,9.0203 3.37258,5.49528 -9.21606,2.50296 -9.21602,-2.50296 3.37417,-5.49528 -35.22758,-9.0203 -4.36737,6.06969 -9.24651,-2.21256 v -5.89961 l 8.4074,-2.72919 V 97.058705 l -8.4074,-2.72919 v -5.89961 l 9.24651,-2.21256 4.36737,6.06969 35.22758,-9.0203 -3.37417,-5.49528 z" /></g></g><g
       id="g2"
       transform="translate(-4.2061157,-2.4772491)"><rect
         style="display:inline;fill:#ffffff;fill-opacity:1;stroke-width:0.342686"
         id="rect2-1-9-4-3-1-1-5-8-0-8-7-5-7-9-8"
         width="210"
         height="210"
         x="-205.79388"
         y="212.47725" /><path
         id="path8-8-4"
         style="display:inline;fill:#000000;fill-opacity:1;stroke-width:1.51324;stroke-linecap:round;paint-order:markers stroke fill"
         d="m -100.79486,271.0964 -28.96772,7.16698 4.32436,6.43877 -20.16917,5.23164 -5.02523,-6.74447 -28.91126,6.74447 0.0487,22.50751 10.83513,3.2963 v 3.47931 l -10.83513,3.29631 -0.0487,22.5075 28.91126,6.74446 5.02523,-6.74446 20.16917,5.23164 -4.32436,6.43878 28.96772,7.16697 28.969675,-7.16697 -4.324348,-6.43878 20.169168,-5.23164 5.025222,6.74446 28.911263,-6.74446 -0.0487,-22.5075 -10.835126,-3.2963 v -3.47931 l 10.835126,-3.2963 0.0487,-22.50752 -28.911263,-6.74447 -5.025222,6.74447 -20.169168,-5.23164 4.324348,-6.43877 z m 0,10.30167 11.183686,3.03734 -4.092622,6.66852 42.748653,10.94614 5.299809,-7.36556 11.220637,2.68493 v 7.15918 l -10.202328,3.31187 v 19.27352 l 10.202328,3.31187 v 7.15918 l -11.220637,2.68495 -5.299809,-7.36557 -42.748653,10.94613 4.092622,6.66852 -11.183686,3.03734 -11.18364,-3.03734 4.09456,-6.66852 -42.74868,-10.94613 -5.2998,7.36557 -11.22064,-2.68495 v -7.15918 l 10.20238,-3.31187 v -19.27352 l -10.20238,-3.31187 v -7.15918 l 11.22064,-2.68493 5.2998,7.36556 42.74868,-10.94614 -4.09456,-6.66852 z" /></g></g></svg>
