<?xml version="1.0" encoding="UTF-8" standalone="no"?>
<!-- Created with Inkscape (http://www.inkscape.org/) -->

<svg
   width="462mm"
   height="210mm"
   viewBox="0 0 462 210"
   version="1.1"
   id="svg1"
   inkscape:version="1.3.2 (091e20e, 2023-11-25, custom)"
   sodipodi:docname="logo-saint-bike-polo-banner-transparent-white.svg"
   xmlns:inkscape="http://www.inkscape.org/namespaces/inkscape"
   xmlns:sodipodi="http://sodipodi.sourceforge.net/DTD/sodipodi-0.dtd"
   xmlns="http://www.w3.org/2000/svg"
   xmlns:svg="http://www.w3.org/2000/svg">
  <sodipodi:namedview
     id="namedview1"
     pagecolor="#ffffff"
     bordercolor="#000000"
     borderopacity="0.25"
     inkscape:showpageshadow="2"
     inkscape:pageopacity="0.0"
     inkscape:pagecheckerboard="0"
     inkscape:deskcolor="#d1d1d1"
     inkscape:document-units="mm"
     inkscape:zoom="0.36213173"
     inkscape:cx="1228.8346"
     inkscape:cy="136.69059"
     inkscape:window-width="1920"
     inkscape:window-height="1009"
     inkscape:window-x="1912"
     inkscape:window-y="-8"
     inkscape:window-maximized="1"
     inkscape:current-layer="layer1" />
  <defs
     id="defs1" />
  <g
     inkscape:label="Layer 1"
     inkscape:groupmode="layer"
     id="layer1">
    <path
       id="text1-8-6-17-5-1-3-65-5-8-1-5-6-7"
       style="font-size:43.774px;font-family:SansSerifBldFLF-Italic;-inkscape-font-specification:SansSerifBldFLF-Italic;display:inline;fill:#fffffe;fill-opacity:1;stroke-width:4.72465"
       d="m 407.9848,89.02242 c -11.46878,0 -17.4656,8.66749 -17.4656,16.9845 0,7.70418 5.07741,14.97066 15.67088,14.97066 11.60002,0 17.55345,-8.44854 17.55345,-16.85323 0,-7.66031 -5.12171,-15.10193 -15.75873,-15.10193 z m -74.5293,0.13178 c -8.76497,0 -15.84555,7.08117 -15.84555,15.84606 0,8.76498 7.08058,15.84606 15.84555,15.84606 h 19.63756 c 8.76487,0 15.84554,-7.08109 15.84554,-15.84606 0,-8.76472 -7.08039,-15.84577 -15.84502,-15.84606 z M 54.0152,89.1955 c -7.61669,0 -11.95018,4.68393 -11.95018,9.45523 0,5.0778 3.23906,7.35365 8.18555,8.40415 2.9766,0.6129 3.89588,2.01389 3.89588,3.67729 0,2.1012 -1.40088,3.45819 -4.07106,3.45819 -3.2393,0 -5.47161,-1.26966 -7.44141,-2.93315 l -4.37751,5.12165 c 2.714,2.53889 6.34727,4.50877 11.24996,4.50877 8.53588,0 13.48238,-3.98336 13.48238,-10.76834 0,-4.90269 -2.93265,-7.87918 -8.62325,-9.10487 -2.14488,-0.4377 -2.97656,-1.48867 -2.97656,-2.49547 0,-1.88228 1.61951,-2.75745 3.7207,-2.75745 2.40749,0 3.85177,0.7002 5.60276,1.7508 L 64.2585,91.99687 C 61.5882,90.33348 59.18058,89.1955 54.0152,89.1955 Z m 24.07553,0.17466 -15.10192,31.25495 h 7.61659 l 2.23242,-4.50877 h 9.93686 l 0.61288,4.50877 h 7.57267 l -4.1584,-31.25495 z m 35.67999,0 -5.51542,31.25495 h 7.79177 l 3.19515,-18.34152 11.68766,18.34152 h 7.57318 l 5.51543,-31.25495 h -7.70444 l -3.32641,19.04174 -12.12536,-19.04174 z m 34.66869,0 -1.13792,6.69778 h 6.25957 l -4.33359,24.55717 h 7.57318 l 4.33359,-24.55717 h 6.25957 l 1.18184,-6.69778 z m -52.659321,5.2e-4 3.04167,6.69726 -4.333579,24.55717 h 7.57318 l 5.51543,-31.25443 z m 199.847231,0.002 -5.51543,31.25444 h 7.61659 l 2.05776,-11.59981 h 3.7207 c 7.48538,0 12.16928,-3.7645 12.16928,-10.46191 0,-5.55908 -3.89606,-9.19272 -9.93686,-9.19272 z m 80.00907,0 -5.51543,31.25444 h 15.97784 l 1.13791,-6.69727 h -8.36073 l 4.33359,-24.55717 z m -147.04116,0.003 -5.51594,31.25547 h 7.61711 l 2.36368,-13.43897 7.35407,13.43897 h 8.36073 l -9.28005,-16.89716 14.31437,-14.35831 h -8.36125 l -11.24996,11.2939 1.96991,-11.2939 z m 30.64206,0 -5.51594,31.25547 h 16.80982 l 1.13792,-6.69778 h -9.19272 l 1.00666,-5.60328 h 8.66768 l 1.18184,-6.69726 h -8.66717 l 1.00666,-5.55936 h 9.19272 l 1.13792,-6.69779 z m -71.11555,10e-4 -5.51594,31.25495 h 12.60698 c 6.87259,0 11.29388,-3.54574 11.29388,-10.06812 0,-4.1148 -2.8454,-6.0848 -4.8152,-6.5226 3.4144,-1.05051 4.72788,-3.54578 4.72788,-6.91639 0,-5.34049 -4.6839,-7.74784 -9.14881,-7.74784 z m 22.96398,0 3.04166,6.69726 -4.33357,24.55717 h 7.57317 l 5.51542,-31.25443 z m -16.35456,5.77794 h 1.57613 c 1.7072,0 2.58279,1.18196 2.58279,2.71405 0,2.58271 -1.401,3.54604 -3.6773,3.54604 h -1.61954 z m 107.33091,0.91519 h 3.19567 c 1.7072,0 2.75797,1.2698 2.75797,2.80189 0,2.31991 -1.6636,3.4582 -3.6773,3.4582 h -3.41426 z m 105.48503,0.0878 c 5.60302,0 8.31681,4.15874 8.31681,8.09822 0,4.9901 -3.10785,9.67383 -9.10488,9.67383 -5.64679,0 -8.36073,-3.80843 -8.36073,-8.09821 0,-4.9465 3.15182,-9.67384 9.1488,-9.67384 z m -74.0916,0.37982 h 19.63756 c 4.6631,0 8.41912,3.75607 8.41912,8.41913 0,4.6632 -3.75602,8.41965 -8.41912,8.41965 H 333.4555 c -4.66309,0 -8.41913,-3.75645 -8.41913,-8.41965 0,-4.66307 3.75604,-8.41913 8.41913,-8.41913 z m -252.650719,3.03237 1.13843,9.58651 h -5.82239 z m 111.781809,7.66673 h 2.71404 c 2.27629,0 3.58945,1.40062 3.58945,3.54552 0,2.80161 -1.97018,4.02714 -4.72788,4.02714 h -2.93264 z" />
  </g>
</svg>
