<?xml version="1.0" encoding="UTF-8" standalone="no"?>
<!-- Created with Inkscape (http://www.inkscape.org/) -->

<svg
   width="210mm"
   height="210mm"
   viewBox="0 0 210 210"
   version="1.1"
   id="svg1"
   xml:space="preserve"
   inkscape:version="1.3.2 (091e20e, 2023-11-25, custom)"
   sodipodi:docname="logo-saint-bike-polo-reverted.svg"
   xmlns:inkscape="http://www.inkscape.org/namespaces/inkscape"
   xmlns:sodipodi="http://sodipodi.sourceforge.net/DTD/sodipodi-0.dtd"
   xmlns="http://www.w3.org/2000/svg"
   xmlns:svg="http://www.w3.org/2000/svg"><sodipodi:namedview
     id="namedview1"
     pagecolor="#ffffff"
     bordercolor="#000000"
     borderopacity="0.25"
     inkscape:showpageshadow="2"
     inkscape:pageopacity="0.0"
     inkscape:pagecheckerboard="0"
     inkscape:deskcolor="#d1d1d1"
     inkscape:document-units="mm"
     inkscape:zoom="0.22627418"
     inkscape:cx="-994.36885"
     inkscape:cy="324.82716"
     inkscape:window-width="1920"
     inkscape:window-height="1009"
     inkscape:window-x="1912"
     inkscape:window-y="-8"
     inkscape:window-maximized="1"
     inkscape:current-layer="layer1"
     showguides="true"
     inkscape:lockguides="false"><sodipodi:guide
       position="1116.2721,299.43182"
       orientation="1,0"
       id="guide5"
       inkscape:locked="false" /></sodipodi:namedview><defs
     id="defs1" /><g
     inkscape:label="Layer 1"
     inkscape:groupmode="layer"
     id="layer1"><rect
       style="fill:#000000;fill-opacity:1;stroke-width:0.342686"
       id="rect2-1-9-4-3-1-1-5-8-0-8-7"
       width="210"
       height="210"
       x="-9.5367432e-06"
       y="-4.4408921e-16" /><path
       id="text1-8-6-17-5-1-3-65-5"
       style="font-size:43.774px;font-family:SansSerifBldFLF-Italic;-inkscape-font-specification:SansSerifBldFLF-Italic;stroke-width:4.72465;fill:#ffffff;fill-opacity:1"
       d="M 55.372331 50.004183 C 47.755638 50.004183 43.422156 54.688125 43.422156 59.45942 C 43.422156 64.537215 46.661208 66.813059 51.607703 67.863558 C 54.5843 68.476457 55.503589 69.877455 55.503589 71.540853 C 55.503589 73.642051 54.102717 74.99904 51.43252 74.99904 C 48.193223 74.99904 45.960911 73.729384 43.991113 72.065885 L 39.613603 77.187537 C 42.3276 79.726434 45.960867 81.696305 50.863562 81.696305 C 59.399453 81.696305 64.345943 77.712964 64.345943 70.92797 C 64.345943 66.025275 61.413291 63.048799 55.722697 61.8231 C 53.577799 61.3854 52.746134 60.334444 52.746134 59.327645 C 52.746134 57.445347 54.36564 56.57019 56.466838 56.57019 C 58.874335 56.57019 60.318598 57.270389 62.069596 58.320988 L 65.615633 52.805562 C 62.945336 51.142164 60.537726 50.004183 55.372331 50.004183 z M 79.447864 50.178849 L 64.345943 81.433789 L 71.962533 81.433789 L 74.194954 76.92502 L 84.131816 76.92502 L 84.744698 81.433789 L 92.317362 81.433789 L 88.15896 50.178849 L 79.447864 50.178849 z M 115.12786 50.178849 L 109.61243 81.433789 L 117.4042 81.433789 L 120.59936 63.092273 L 132.28702 81.433789 L 139.8602 81.433789 L 145.37562 50.178849 L 137.67118 50.178849 L 134.34477 69.220581 L 122.21941 50.178849 L 115.12786 50.178849 z M 149.79654 50.178849 L 148.65863 56.876632 L 154.91819 56.876632 L 150.58461 81.433789 L 158.15779 81.433789 L 162.49137 56.876632 L 168.75094 56.876632 L 169.93278 50.178849 L 149.79654 50.178849 z M 97.137223 50.179366 L 100.1789 56.876632 L 95.845312 81.433789 L 103.41849 81.433789 L 108.93392 50.179366 L 97.137223 50.179366 z M 82.16191 60.378743 L 83.300342 69.965238 L 77.477958 69.965238 L 82.16191 60.378743 z M 85.603044 89.312378 L 80.087101 120.56783 L 87.704207 120.56783 L 90.067887 107.12886 L 97.42196 120.56783 L 105.78269 120.56783 L 96.502637 103.67067 L 110.81701 89.312378 L 102.45576 89.312378 L 91.205802 100.60626 L 93.175708 89.312378 L 85.603044 89.312378 z M 116.2451 89.312378 L 110.72916 120.56783 L 127.53899 120.56783 L 128.6769 113.87005 L 119.48418 113.87005 L 120.49084 108.26678 L 129.15852 108.26678 L 130.34036 101.56951 L 121.67319 101.56951 L 122.67985 96.01016 L 131.87257 96.01016 L 133.01049 89.312378 L 116.2451 89.312378 z M 45.129545 89.313411 L 39.613603 120.56835 L 52.220585 120.56835 C 59.093178 120.56835 63.514469 117.02263 63.514469 110.50023 C 63.514469 106.38544 60.669057 104.41543 58.699259 103.97763 C 62.113656 102.92713 63.427136 100.43186 63.427136 97.061259 C 63.427136 91.720764 58.743236 89.313411 54.278341 89.313411 L 45.129545 89.313411 z M 68.093518 89.313411 L 71.135193 96.010677 L 66.801607 120.56783 L 74.374788 120.56783 L 79.890214 89.313411 L 68.093518 89.313411 z M 51.738961 95.091353 L 53.315092 95.091353 C 55.02229 95.091353 55.89788 96.273303 55.89788 97.8054 C 55.89788 100.3881 54.496883 101.35144 52.220585 101.35144 L 50.601046 101.35144 L 51.738961 95.091353 z M 49.594389 107.1733 L 52.308435 107.1733 C 54.584733 107.1733 55.89788 108.57393 55.89788 110.71882 C 55.89788 113.52042 53.9277 114.74597 51.170003 114.74597 L 48.237366 114.74597 L 49.594389 107.1733 z M 157.48651 127.83457 C 146.01772 127.83457 140.02091 136.50208 140.02091 144.81907 C 140.02091 152.52326 145.0983 159.78973 155.69179 159.78973 C 167.29182 159.78973 173.24524 151.34119 173.24524 142.93649 C 173.24524 135.2762 168.12354 127.83457 157.48651 127.83457 z M 82.95721 127.96635 C 74.192228 127.96635 67.111666 135.04753 67.111666 143.81241 C 67.111666 152.57739 74.192228 159.65847 82.95721 159.65847 L 102.59477 159.65847 C 111.35965 159.65847 118.44032 152.57739 118.44032 143.81241 C 118.44032 135.0477 111.35993 127.96663 102.59529 127.96635 L 82.95721 127.96635 z M 45.129028 128.18494 L 39.613603 159.43936 L 47.230192 159.43936 L 49.287948 147.83955 L 53.008651 147.83955 C 60.494043 147.83955 65.177934 144.07505 65.177934 137.37766 C 65.177934 131.81857 61.281867 128.18494 55.241073 128.18494 L 45.129028 128.18494 z M 125.1381 128.18494 L 119.62267 159.43936 L 135.60051 159.43936 L 136.73842 152.7421 L 128.37769 152.7421 L 132.71128 128.18494 L 125.1381 128.18494 z M 51.563778 134.88221 L 54.759448 134.88221 C 56.466647 134.88221 57.517419 136.152 57.517419 137.6841 C 57.517419 140.004 55.853822 141.14229 53.840125 141.14229 L 50.425863 141.14229 L 51.563778 134.88221 z M 157.04881 134.97006 C 162.65185 134.97006 165.36562 139.12877 165.36562 143.06827 C 165.36562 148.05836 162.25778 152.7421 156.26075 152.7421 C 150.61395 152.7421 147.90002 148.93368 147.90002 144.64388 C 147.90002 139.69739 151.05182 134.97006 157.04881 134.97006 z M 82.95721 135.34988 L 102.59477 135.34988 C 107.25787 135.34988 111.0139 139.10592 111.0139 143.769 C 111.0139 148.4322 107.25787 152.18864 102.59477 152.18864 L 82.95721 152.18864 C 78.29412 152.18864 74.538086 148.4322 74.538086 143.769 C 74.538086 139.10592 78.29412 135.34988 82.95721 135.34988 z " /></g></svg>
