<?xml version="1.0" encoding="UTF-8" standalone="no"?>
<!-- Created with Inkscape (http://www.inkscape.org/) -->

<svg
   width="210mm"
   height="210mm"
   viewBox="0 0 210 210"
   version="1.1"
   id="svg1"
   xml:space="preserve"
   inkscape:version="1.3.2 (091e20e, 2023-11-25, custom)"
   sodipodi:docname="logo-saint-bike-polo-stick.svg"
   xmlns:inkscape="http://www.inkscape.org/namespaces/inkscape"
   xmlns:sodipodi="http://sodipodi.sourceforge.net/DTD/sodipodi-0.dtd"
   xmlns="http://www.w3.org/2000/svg"
   xmlns:svg="http://www.w3.org/2000/svg"><sodipodi:namedview
     id="namedview1"
     pagecolor="#ffffff"
     bordercolor="#000000"
     borderopacity="0.25"
     inkscape:showpageshadow="2"
     inkscape:pageopacity="0.0"
     inkscape:pagecheckerboard="0"
     inkscape:deskcolor="#d1d1d1"
     inkscape:document-units="mm"
     inkscape:zoom="0.64000004"
     inkscape:cx="246.09373"
     inkscape:cy="185.15624"
     inkscape:window-width="1920"
     inkscape:window-height="1009"
     inkscape:window-x="1912"
     inkscape:window-y="-8"
     inkscape:window-maximized="1"
     inkscape:current-layer="layer1"
     showguides="true"
     inkscape:lockguides="false" /><defs
     id="defs1" /><g
     inkscape:label="Layer 1"
     inkscape:groupmode="layer"
     id="layer1"><rect
       style="fill:#ffffff;fill-opacity:1;stroke-width:0.342686"
       id="rect2-1-9-4-3-1-1-5-8-0-8-7"
       width="210"
       height="210"
       x="-9.5367432e-06"
       y="-4.4408921e-16" /><g
       id="g59"><path
         style="font-size:43.774px;font-family:SansSerifBldFLF-Italic;-inkscape-font-specification:SansSerifBldFLF-Italic;stroke-width:4.72465"
         d="m 62.069792,58.321088 3.5457,-5.5155 c -2.6703,-1.6634 -5.0778,-2.8016 -10.2432,-2.8016 -7.6167,0 -11.9503,4.6839 -11.9503,9.4552 0,5.0778 3.2393,7.3541 8.1858,8.4046 2.9766,0.6129 3.8959,2.0136 3.8959,3.677 0,2.1012 -1.4008,3.4582 -4.071,3.4582 -3.2393,0 -5.4718,-1.2694 -7.4416,-2.9329 l -4.3774,5.1216 c 2.714,2.5389 6.3472,4.5087 11.2499,4.5087 8.5359,0 13.4824,-3.9834 13.4824,-10.7684 0,-4.9027 -2.9329,-7.8793 -8.6235,-9.105 -2.1449,-0.4377 -2.9766,-1.4883 -2.9766,-2.4951 0,-1.8823 1.6196,-2.7578 3.7208,-2.7578 2.4075,0 3.8521,0.7004 5.6031,1.751 z m 17.3782,-8.142 -15.102,31.2547 h 7.6167 l 2.2325,-4.5088 h 9.9366 l 0.6129,4.5088 h 7.5729 l -4.1585,-31.2547 z m 2.714,10.1994 1.1381,9.5865 h -5.8219 z"
         id="text1-8-6-17-5-1-3-65-5"
         aria-label="SAINT"
         sodipodi:nodetypes="ccsscssccsscsscccccccccccccc" /><path
         style="font-size:43.7745px;font-family:SansSerifBldFLF-Italic;-inkscape-font-specification:SansSerifBldFLF-Italic;stroke-width:4.72471"
         d="m 63.426992,97.061288 c 0,-5.3405 -4.6839,-7.7481 -9.1488,-7.7481 h -9.1489 l -5.5156,31.255002 h 12.607 c 6.8726,0 11.2939,-3.5458 11.2939,-10.0682 0,-4.1148 -2.8454,-6.0846 -4.8152,-6.5224 3.4144,-1.0505 4.7276,-3.5457 4.7276,-6.916302 z m -12.8259,4.289902 1.1381,-6.259802 h 1.5759 c 1.7072,0 2.5827,1.1819 2.5827,2.713998 0,2.582704 -1.4008,3.545804 -3.6771,3.545804 z m -2.3638,13.395 1.357,-7.573 h 2.714 c 2.2763,0 3.5895,1.4008 3.5895,3.5457 0,2.8016 -1.9699,4.0273 -4.7276,4.0273 z"
         id="text1-0-8-6-2-69-4"
         aria-label="BIKE"
         sodipodi:nodetypes="ssccsscsccssscccsssc" /><path
         style="font-size:43.7745px;font-family:SansSerifBldFLF-Italic;-inkscape-font-specification:SansSerifBldFLF-Italic;stroke-width:4.72471"
         d="m 91.205892,100.60641 1.9699,-11.293802 h -7.573 l -5.5156,31.255002 h 7.6168 l 2.3638,-13.4388 7.3541,13.4388 h 8.360998 l -9.280298,-16.897 14.314298,-14.358002 h -8.3609 z m 40.666498,-4.596302 1.1382,-6.6975 h -16.7657 l -5.5156,31.255002 h 16.8095 l 1.1381,-6.6975 h -9.1927 l 1.0069,-5.6032 h 8.6673 l 1.1819,-6.6975 h -8.6673 l 1.0068,-5.559302 z"
         id="text1-0-8-6-2-69-0-04"
         aria-label="BIKE"
         sodipodi:nodetypes="ccccccccccccccccccccccccc" /><path
         id="text5-1-2-4-5-5-4-5-2-1-4-9-7"
         style="font-style:normal;font-variant:normal;font-weight:normal;font-stretch:normal;font-size:43.1771px;font-family:SansSerifBldFLF-Italic;-inkscape-font-specification:SansSerifBldFLF-Italic;fill:#000000;stroke-width:4.66025"
         d="m 82.95721,127.96635 c -8.764991,0 -15.845544,7.08117 -15.845544,15.84606 0,8.76499 7.080553,15.84606 15.845544,15.84606 h 19.63756 c 8.76489,0 15.84555,-7.08107 15.84555,-15.84606 0,-8.76472 -7.08038,-15.84578 -15.84503,-15.84606 z m 0,7.38353 h 19.63756 c 4.6631,0 8.41913,3.75603 8.41913,8.41912 0,4.6632 -3.75603,8.41964 -8.41913,8.41964 H 82.95721 c -4.663095,0 -8.419124,-3.75644 -8.419124,-8.41964 0,-4.66309 3.756029,-8.41912 8.419124,-8.41912 z"
         sodipodi:nodetypes="ssssssssssssss" /><path
         style="font-size:43.774px;font-family:SansSerifBldFLF-Italic;-inkscape-font-specification:SansSerifBldFLF-Italic;stroke-width:4.72465"
         d="m 65.177692,137.37746 c 0,-5.5591 -3.8959,-9.1924 -9.9367,-9.1924 h -10.1118 l -5.5155,31.2545 h 7.6167 l 2.0573,-11.6001 h 3.7208 c 7.4854,0 12.1692,-3.7646 12.1692,-10.462 z m -14.7519,3.7646 1.1381,-6.2597 h 3.1956 c 1.7072,0 2.7577,1.2696 2.7577,2.8017 0,2.3199 -1.6634,3.458 -3.6771,3.458 z"
         id="text1-8-71-1-6-6-3-7-0-6-1-88-3-2-5"
         aria-label="POLO"
         sodipodi:nodetypes="ssccccssccsssc" /><path
         style="font-size:43.774px;font-family:SansSerifBldFLF-Italic;-inkscape-font-specification:SansSerifBldFLF-Italic;stroke-width:4.72465"
         d="m 128.37759,152.74216 4.3336,-24.5571 h -7.5729 l -5.5155,31.2545 h 15.9775 l 1.1381,-6.6974 z"
         id="text1-8-71-1-6-6-3-8-4-9-3-6-6-8"
         aria-label="POLO"
         sodipodi:nodetypes="ccccccc" /><path
         id="path11-56"
         style="font-size:43.774px;font-family:SansSerifBldFLF-Italic;-inkscape-font-specification:SansSerifBldFLF-Italic;stroke-width:4.72465"
         d="m 97.136992,50.179368 3.041698,6.69726 -4.333598,24.55716 h 7.573198 l 5.5154,-31.25442 z"
         sodipodi:nodetypes="cccccc" /><path
         id="path11-5-3"
         style="font-size:43.774px;font-family:SansSerifBldFLF-Italic;-inkscape-font-specification:SansSerifBldFLF-Italic;stroke-width:4.72465"
         d="m 68.093392,89.313188 3.0417,6.69726 -4.3336,24.557162 h 7.5732 l 5.5154,-31.254422 z"
         sodipodi:nodetypes="cccccc" /><path
         style="font-size:43.774px;font-family:SansSerifBldFLF-Italic;-inkscape-font-specification:SansSerifBldFLF-Italic;stroke-width:4.72465"
         d="m 140.02079,144.81906 c 0,7.7042 5.0776,14.9706 15.6711,14.9706 11.60004,0 17.55324,-8.4483 17.55324,-16.853 0,-7.6603 -5.1215,-15.102 -15.75854,-15.102 -11.4688,0 -17.4658,8.6674 -17.4658,16.9844 z m 25.34504,-1.7509 c 0,4.9901 -3.1079,9.674 -9.10494,9.674 -5.6468,0 -8.3608,-3.8084 -8.3608,-8.0982 0,-4.9465 3.1517,-9.6738 9.1487,-9.6738 5.60304,0 8.31704,4.1585 8.31704,8.098 z"
         id="text1-8-71-1-6-6-3-7-2-7-68-1-5-1-6-1"
         aria-label="POLO"
         sodipodi:nodetypes="ssssssssss" /><path
         style="font-size:43.774px;font-family:SansSerifBldFLF-Italic;-inkscape-font-specification:SansSerifBldFLF-Italic;stroke-width:4.72465"
         d="m 134.34459,69.220788 -12.1254,-19.0417 h -7.0914 l -5.5155,31.2547 h 7.7917 l 3.1955,-18.3413 11.6877,18.3413 h 7.5729 l 5.5155,-31.2547 h -7.7042 z m 35.58824,-19.0417 h -20.13604 l -1.1381,6.6975 h 6.2597 l -4.3337,24.5572 h 7.5729 l 4.33364,-24.5572 h 6.2598 z"
         id="path1-1"
         aria-label="SAINT"
         sodipodi:nodetypes="cccccccccccccccccccc" /></g><path
       id="text1-80-3-1-85-0-5-5-6-6-7-3-63-0-9-9"
       style="font-size:43.7745px;font-family:SansSerifBldFLF-Italic;-inkscape-font-specification:SansSerifBldFLF-Italic;fill:#6d94ba;fill-opacity:1;stroke-width:4.72471;opacity:1"
       d="M 178.23156,-2.2102539e-4 177.78405,2.544839 h -0.002 L 155.73223,127.91032 c 0.5708,-0.046 1.153,-0.0749 1.7539,-0.0749 2.1223,0 4.02136,0.30051 5.70766,0.83561 L 178.7515,40.225779 h 5.2e-4 l 2.82463,-16.06051 1.34307,-7.6352 2.4598,-13.98519 0.44752,-2.54506002539 z M 157.04836,134.97035 c -0.943,0 -1.81518,0.11753 -2.61638,0.33383 l -2.86235,16.27187 c 1.24208,0.7307 2.79798,1.16634 4.69118,1.16634 1.0035,0 1.92441,-0.13389 2.76521,-0.37569 l 2.82463,-16.06051 c -1.2579,-0.824 -2.85079,-1.33584 -4.80229,-1.33584 z" /></g></svg>
